<?xml version="1.0" encoding="utf-8"?>
<!-- Generator: Adobe Illustrator 24.3.0, SVG Export Plug-In . SVG Version: 6.00 Build 0)  -->
<svg version="1.1" xmlns="http://www.w3.org/2000/svg" xmlns:xlink="http://www.w3.org/1999/xlink" x="0px" y="0px"
	 viewBox="0 0 150.24 96.38" style="enable-background:new 0 0 150.24 96.38;" xml:space="preserve">
<style type="text/css">
	.st0{fill:#FFFFFF;}
	.st1{fill:#009871;}
	.st2{fill:#80CDEC;}
</style>
<g id="HG">
	<rect x="0" class="st0" width="150.24" height="96.38"/>
</g>
<g id="Elemente">
	<g>
		<path class="st1" d="M32.59,53.9V29.75h14.04l-0.28,3.85h-9.07v6.97h8.51v3.85h-8.51v9.49H32.59z"/>
		<path class="st1" d="M60.14,54.32c-6.48,0-10.99-4.27-10.99-12.5s4.59-12.5,11.03-12.5c6.44,0,10.96,4.27,10.96,12.5
			S66.58,54.32,60.14,54.32z M60.17,33.29c-3.82,0-6.09,2.77-6.09,8.54c0,5.71,2.28,8.54,6.09,8.54c3.75,0,6.06-2.84,6.06-8.54
			C66.23,36.05,63.92,33.29,60.17,33.29z"/>
		<path class="st2" d="M93.25,53.9h-4.03l-9.94-15.09h-0.07V53.9h-4.69V29.75h4.03l9.94,14.98h0.07V29.75h4.69V53.9z"/>
		<path class="st1" d="M112.53,53.9l-2.1-6.51h-7.46l-2.1,6.51h-4.69l8.89-24.15h3.67l8.86,24.15H112.53z M106.76,35.77h-0.07
			l-2.66,8.26h5.39L106.76,35.77z"/>
	</g>
	<g>
		<path d="M32.64,66.62v-5h2.77l-0.04,0.52h-2.09v1.82h1.92v0.52h-1.92v2.14H32.64z"/>
		<path d="M37.48,66.71c-0.85,0-1.5-0.58-1.5-1.83c0-1.26,0.75-1.83,1.59-1.83c0.85,0,1.5,0.57,1.5,1.83
			C39.07,66.13,38.31,66.71,37.48,66.71z M37.52,63.58c-0.54,0-0.94,0.41-0.94,1.3c0,0.88,0.39,1.3,0.94,1.3
			c0.56,0,0.93-0.42,0.93-1.3C38.46,63.99,38.07,63.58,37.52,63.58z"/>
		<path d="M41.67,63.67c-0.04-0.02-0.13-0.07-0.32-0.07c-0.46,0-0.7,0.28-0.8,0.49v2.53h-0.59v-3.48h0.54v0.51h0.01
			c0.11-0.25,0.34-0.58,0.88-0.58c0.14,0,0.23,0.02,0.32,0.05L41.67,63.67z"/>
		<path d="M44.13,63.87c-0.12-0.1-0.38-0.3-0.77-0.3c-0.38,0-0.56,0.16-0.56,0.36c0,0.27,0.16,0.4,0.53,0.59l0.26,0.13
			c0.54,0.28,0.84,0.57,0.84,1.08c0,0.53-0.39,0.99-1.24,0.99c-0.58,0-0.88-0.23-1.04-0.37l0.22-0.52c0.15,0.15,0.41,0.36,0.83,0.36
			c0.44,0,0.67-0.17,0.67-0.39c0-0.33-0.22-0.46-0.61-0.67L43,64.99c-0.5-0.27-0.75-0.56-0.75-1.04c0-0.52,0.46-0.9,1.12-0.9
			c0.56,0,0.83,0.23,0.95,0.33L44.13,63.87z"/>
		<path d="M47.52,63.82c-0.07-0.06-0.33-0.25-0.72-0.25c-0.63,0-1.09,0.36-1.09,1.26c0,1,0.42,1.36,1.04,1.36
			c0.37,0,0.6-0.14,0.72-0.23l0.17,0.44c-0.13,0.12-0.41,0.31-1,0.31c-0.91,0-1.54-0.54-1.54-1.86c0-1.27,0.87-1.8,1.68-1.8
			c0.53,0,0.78,0.2,0.93,0.3L47.52,63.82z"/>
		<path d="M50.67,66.62v-2.06c0-0.67-0.2-0.99-0.7-0.99c-0.47,0-0.75,0.23-0.91,0.38v2.67h-0.59V61.5l0.59-0.07v2.07h0.01
			c0.17-0.17,0.5-0.44,1.04-0.44c0.74,0,1.14,0.46,1.14,1.41v2.15H50.67z"/>
		<path d="M55.01,66.62h-0.54v-0.39h-0.01c-0.11,0.13-0.39,0.48-1.07,0.48c-0.72,0-1.11-0.44-1.11-1.41v-2.15h0.59v2.06
			c0,0.69,0.2,0.99,0.67,0.99c0.49,0,0.75-0.24,0.89-0.38v-2.67h0.59V66.62z"/>
		<path d="M58.29,66.62v-2.06c0-0.67-0.2-0.99-0.7-0.99c-0.47,0-0.75,0.23-0.91,0.38v2.67h-0.59v-3.48h0.54v0.39h0.01
			c0.14-0.15,0.48-0.48,1.08-0.48c0.74,0,1.14,0.46,1.14,1.41v2.15H58.29z"/>
		<path d="M62.75,63.6h-0.53c0.12,0.18,0.2,0.4,0.2,0.63c0,0.74-0.59,1.17-1.36,1.17c-0.1,0-0.2-0.01-0.29-0.02
			c-0.12,0.05-0.29,0.15-0.29,0.34c0,0.14,0.11,0.25,0.37,0.25h0.71c0.73,0,1.15,0.3,1.15,0.92c0,0.66-0.63,1.27-1.84,1.27
			c-0.83,0-1.3-0.32-1.3-0.94c0-0.53,0.4-0.75,0.61-0.85v-0.01c-0.15-0.12-0.22-0.3-0.22-0.49c0-0.36,0.32-0.54,0.41-0.58v-0.01
			c-0.36-0.17-0.59-0.51-0.59-1.03c0-0.78,0.59-1.17,1.32-1.17c0.19,0,0.36,0.03,0.52,0.09h1.2L62.75,63.6z M60.49,66.48
			c-0.18,0.11-0.36,0.28-0.36,0.62c0,0.39,0.26,0.56,0.78,0.56c0.85,0,1.21-0.33,1.21-0.68c0-0.33-0.17-0.46-0.56-0.46h-0.77
			C60.67,66.51,60.58,66.51,60.49,66.48z M61.11,63.54c-0.4,0-0.75,0.19-0.75,0.69c0,0.5,0.36,0.69,0.74,0.69
			c0.4,0,0.75-0.19,0.75-0.69C61.85,63.73,61.49,63.54,61.11,63.54z"/>
		<path d="M66.76,63.64h-0.83v2.98h-0.59v-2.98h-0.48v-0.41l0.48-0.09v-0.59c0-0.78,0.41-1.17,1.11-1.17c0.25,0,0.42,0.09,0.46,0.11
			L66.83,62c-0.05-0.02-0.2-0.09-0.39-0.09c-0.34,0-0.51,0.17-0.51,0.65v0.58h0.91L66.76,63.64z"/>
		<path d="M70.22,66.62h-0.54v-0.39h-0.01c-0.11,0.13-0.39,0.48-1.07,0.48c-0.72,0-1.11-0.44-1.11-1.41v-2.15h0.59v2.06
			c0,0.69,0.2,0.99,0.67,0.99c0.49,0,0.75-0.24,0.89-0.38v-2.67h0.59V66.62z M68.22,62.51c-0.2,0-0.36-0.14-0.36-0.37
			c0-0.22,0.16-0.37,0.36-0.37c0.2,0,0.36,0.15,0.36,0.37C68.58,62.37,68.42,62.51,68.22,62.51z M69.46,62.51
			c-0.2,0-0.36-0.14-0.36-0.37c0-0.22,0.16-0.37,0.36-0.37c0.2,0,0.36,0.15,0.36,0.37C69.81,62.37,69.65,62.51,69.46,62.51z"/>
		<path d="M73,63.67c-0.04-0.02-0.13-0.07-0.32-0.07c-0.46,0-0.7,0.28-0.8,0.49v2.53h-0.59v-3.48h0.54v0.51h0.01
			c0.11-0.25,0.34-0.58,0.88-0.58c0.14,0,0.23,0.02,0.32,0.05L73,63.67z"/>
		<path d="M79.26,66.62h-0.59l-2.51-3.86h-0.01v3.86h-0.63v-5h0.59l2.51,3.84h0.01v-3.84h0.63V66.62z"/>
		<path d="M81.84,64.69h0.29v-0.27c0-0.61-0.24-0.84-0.69-0.84c-0.42,0-0.71,0.2-0.86,0.32l-0.22-0.43
			c0.18-0.14,0.54-0.41,1.19-0.41c0.76,0,1.17,0.44,1.17,1.36v1.48c0,0.3,0.03,0.63,0.04,0.72H82.2l-0.02-0.38h-0.01
			c-0.12,0.2-0.42,0.47-0.97,0.47c-0.57,0-0.94-0.41-0.94-0.99C80.25,65,80.94,64.69,81.84,64.69z M82.13,65.86v-0.75l-0.33,0.01
			c-0.66,0.03-0.96,0.19-0.96,0.56c0,0.34,0.23,0.53,0.49,0.53C81.79,66.21,82,66,82.13,65.86z"/>
		<path d="M86.01,63.82c-0.07-0.06-0.33-0.25-0.72-0.25c-0.63,0-1.09,0.36-1.09,1.26c0,1,0.42,1.36,1.04,1.36
			c0.37,0,0.6-0.14,0.72-0.23l0.17,0.44c-0.13,0.12-0.41,0.31-1,0.31c-0.91,0-1.54-0.54-1.54-1.86c0-1.27,0.87-1.8,1.68-1.8
			c0.53,0,0.78,0.2,0.93,0.3L86.01,63.82z"/>
		<path d="M89.17,66.62v-2.06c0-0.67-0.2-0.99-0.7-0.99c-0.47,0-0.75,0.23-0.91,0.38v2.67h-0.59V61.5l0.59-0.07v2.07h0.01
			c0.17-0.17,0.5-0.44,1.04-0.44c0.74,0,1.14,0.46,1.14,1.41v2.15H89.17z"/>
		<path d="M93,66.62v-2.06c0-0.67-0.2-0.99-0.7-0.99c-0.47,0-0.75,0.23-0.91,0.38v2.67H90.8V61.5l0.59-0.07v2.07h0.01
			c0.17-0.17,0.5-0.44,1.04-0.44c0.74,0,1.14,0.46,1.14,1.41v2.15H93z"/>
		<path d="M96,64.69h0.29v-0.27c0-0.61-0.24-0.84-0.69-0.84c-0.42,0-0.71,0.2-0.86,0.32l-0.22-0.43c0.18-0.14,0.54-0.41,1.19-0.41
			c0.76,0,1.17,0.44,1.17,1.36v1.48c0,0.3,0.03,0.63,0.04,0.72h-0.57l-0.02-0.38h-0.01c-0.12,0.2-0.42,0.47-0.97,0.47
			c-0.57,0-0.94-0.41-0.94-0.99C94.41,65,95.09,64.69,96,64.69z M96.29,65.86v-0.75l-0.33,0.01c-0.66,0.03-0.96,0.19-0.96,0.56
			c0,0.34,0.23,0.53,0.49,0.53C95.94,66.21,96.16,66,96.29,65.86z"/>
		<path d="M98.52,65.77c0,0.33,0.1,0.43,0.33,0.43c0.12,0,0.21-0.03,0.25-0.04l0.04,0.42c-0.04,0.02-0.2,0.11-0.48,0.11
			c-0.46,0-0.72-0.21-0.72-0.89v-4.3l0.59-0.07V65.77z"/>
		<path d="M101.43,63.64h-0.9v1.8c0,0.54,0.14,0.75,0.52,0.75c0.19,0,0.33-0.07,0.41-0.1l0.06,0.47c-0.06,0.04-0.25,0.15-0.62,0.15
			c-0.68,0-0.95-0.39-0.95-1.19v-1.88h-0.48v-0.41l0.48-0.09l0.07-0.97h0.52v0.97h0.97L101.43,63.64z"/>
		<path d="M102.53,62.3c-0.23,0-0.41-0.16-0.41-0.41s0.18-0.42,0.41-0.42s0.42,0.17,0.42,0.42S102.76,62.3,102.53,62.3z
			 M102.82,66.62h-0.59v-3.48h0.59V66.62z"/>
		<path d="M106.73,63.6h-0.53c0.12,0.18,0.2,0.4,0.2,0.63c0,0.74-0.59,1.17-1.36,1.17c-0.1,0-0.2-0.01-0.29-0.02
			c-0.12,0.05-0.29,0.15-0.29,0.34c0,0.14,0.11,0.25,0.37,0.25h0.71c0.73,0,1.15,0.3,1.15,0.92c0,0.66-0.63,1.27-1.84,1.27
			c-0.83,0-1.3-0.32-1.3-0.94c0-0.53,0.4-0.75,0.61-0.85v-0.01c-0.15-0.12-0.22-0.3-0.22-0.49c0-0.36,0.32-0.54,0.41-0.58v-0.01
			c-0.36-0.17-0.59-0.51-0.59-1.03c0-0.78,0.59-1.17,1.32-1.17c0.19,0,0.36,0.03,0.52,0.09h1.2L106.73,63.6z M104.47,66.48
			c-0.18,0.11-0.36,0.28-0.36,0.62c0,0.39,0.26,0.56,0.78,0.56c0.85,0,1.21-0.33,1.21-0.68c0-0.33-0.17-0.46-0.56-0.46h-0.77
			C104.65,66.51,104.55,66.51,104.47,66.48z M105.08,63.54c-0.4,0-0.75,0.19-0.75,0.69c0,0.5,0.36,0.69,0.74,0.69
			c0.4,0,0.75-0.19,0.75-0.69C105.82,63.73,105.46,63.54,105.08,63.54z"/>
		<path d="M108.87,64.71l1.44,1.91h-0.74L108.39,65h-0.29v1.62h-0.59V61.5l0.59-0.07v3.07h0.3l1.14-1.36h0.71L108.87,64.71z"/>
		<path d="M113.26,65.01h-2.02c0.04,0.81,0.43,1.18,1.06,1.18c0.55,0,0.82-0.24,0.91-0.33l0.17,0.42c-0.12,0.12-0.41,0.43-1.15,0.43
			c-0.99,0-1.58-0.57-1.58-1.87c0-1.22,0.72-1.78,1.51-1.78c0.72,0,1.17,0.49,1.17,1.36C113.33,64.65,113.3,64.84,113.26,65.01z
			 M111.24,64.55h1.52c0.01-0.09,0.01-0.16,0.01-0.23c0-0.49-0.25-0.76-0.67-0.76C111.62,63.56,111.28,63.91,111.24,64.55z"/>
		<path d="M114.55,62.3c-0.23,0-0.41-0.16-0.41-0.41s0.18-0.42,0.41-0.42s0.42,0.17,0.42,0.42S114.79,62.3,114.55,62.3z
			 M114.84,66.62h-0.59v-3.48h0.59V66.62z"/>
		<path d="M117.56,63.64h-0.9v1.8c0,0.54,0.14,0.75,0.52,0.75c0.19,0,0.33-0.07,0.41-0.1l0.06,0.47c-0.06,0.04-0.25,0.15-0.62,0.15
			c-0.68,0-0.95-0.39-0.95-1.19v-1.88h-0.48v-0.41l0.48-0.09l0.07-0.97h0.52v0.97h0.97L117.56,63.64z"/>
	</g>
</g>
</svg>
