<svg xmlns="http://www.w3.org/2000/svg" xmlns:xlink="http://www.w3.org/1999/xlink" width="680" height="316" viewBox="0 0 680 316"><defs><circle id="g" cx="15" cy="15" r="15"/><circle id="i" cx="5" cy="5" r="5"/><circle id="k" cx="5" cy="5" r="5"/><circle id="m" cx="5" cy="5" r="5"/><polygon id="a" points="0 0 25.073 0 25.073 17.484 0 17.484"/><polygon id="c" points="0 0 9.644 0 9.644 7.123 0 7.123"/><polygon id="e" points="0 0 27.965 0 27.965 19.426 0 19.426"/><path id="o" d="M14.7222638,12 L10.2777687,12 C10.1244474,12 10,12.1261991 10,12.2823432 L10,16.5176568 C10,16.6738009 10.1244474,16.8 10.2777687,16.8 L14.7222313,16.8 C14.8755526,16.8 15,16.6738009 15,16.5176568 L15,12.2823432 C15,12.1261991 14.8755851,12 14.7222638,12 L14.7222638,12 Z"/></defs><g fill="none" fill-rule="evenodd" transform="translate(-1)"><g stroke="#A8B7EE" stroke-width="1.25" transform="translate(16 47.5)"><line x1="103.275" x2="611.5" y1=".5" y2=".5"/><path d="M35.5003899 107C80.7624274 106.666667 272.79511 106.5 611.598436 106.5M35.4922011 179C79.10692 178.666667 234.670662 178.5 502.183428 178.5M611 106.5C640.271092 106.5 664 82.7710917 664 53.5 664 24.2289083 640.271092.5 611 .5"/><path d="M0,179 C19.882251,179 36,162.882251 36,143 C36,123.117749 19.882251,107 0,107" transform="rotate(-180 18 143)"/></g><text fill="#24387D" font-family="SairaSemiCondensed-Medium, Saira SemiCondensed" font-size="14" font-weight="400" letter-spacing=".245">
                    <tspan x="444.796" y="296">Fragebogen</tspan>
                    <tspan x="442" y="316">beantworten</tspan>
                </text><text fill="#24387D" font-family="SairaSemiCondensed-Medium, Saira SemiCondensed" font-size="14" font-weight="400" letter-spacing=".245">
                    <tspan x="258.5" y="296">Eigene Wege tracken</tspan>
                </text><text fill="#24387D" font-family="SairaSemiCondensed-Medium, Saira SemiCondensed" font-size="14" font-weight="400" letter-spacing=".245">
                    <tspan x="113.5" y="296">Registrierung</tspan>
                </text><text fill="#24387D" font-family="SairaSemiCondensed-Medium, Saira SemiCondensed" font-size="14" font-weight="400" letter-spacing=".245">
                    <tspan x="506.5" y="118">Download der App</tspan>
                </text><text fill="#24387D" font-family="SairaSemiCondensed-Medium, Saira SemiCondensed" font-size="14" font-weight="400" letter-spacing=".245">
                    <tspan x="367.017" y="116">Zusendung </tspan>
                    <tspan x="346" y="136">der Zugangsdaten</tspan>
                </text><text fill="#24387D" font-family="SairaSemiCondensed-Medium, Saira SemiCondensed" font-size="14" font-weight="400" letter-spacing=".245">
                    <tspan x="212" y="116">Screening</tspan>
                </text><text fill="#24387D" font-family="SairaSemiCondensed-Medium, Saira SemiCondensed" font-size="14" font-weight="400" letter-spacing=".245">
                    <tspan x="0" y="117">Teilnahmeanfrage per Mail </tspan>
                    <tspan x="26.534" y="137">movinglab@dlr.de</tspan>
                </text><g transform="translate(34)"><circle cx="48" cy="48" r="47.375" fill="#EEF2FF" stroke="#A8B7EE" stroke-width="1.25"/><g transform="translate(21 25)"><path fill="#24387D" d="M53.0350828,47 L0.964700263,47 C0.431702042,47 0.000433919853,46.5660851 0.000433919853,46.0287298 L0.000433919853,14.9480847 C0.000433919853,14.4107295 0.431702042,13.9768145 0.964700263,13.9768145 C1.49818062,13.9768145 1.92896661,14.4107295 1.92896661,14.9480847 L1.92896661,45.0574597 L52.0708164,45.0574597 L52.0708164,14.9480847 C52.0708164,14.4107295 52.5020846,13.9768145 53.0350828,13.9768145 C53.5685631,13.9768145 53.9993491,14.4107295 53.9993491,14.9480847 L53.9993491,46.0287298 C53.9993491,46.5660851 53.5685631,47 53.0350828,47"/><g transform="translate(28.927 29.516)"><mask id="b" fill="#fff"><use xlink:href="#a"/></mask><path fill="#1E3791" d="M24.1073012,17.4838013 C23.9240906,17.4838013 23.7381077,17.43026 23.5733387,17.3206279 L0.42962061,1.77933408 C-0.0139419077,1.48103273 -0.133510934,0.878723818 0.162639366,0.432060953 C0.456861134,-0.0137520512 1.0548268,-0.134189551 1.50019732,0.163140527 L24.6435538,15.7044344 C25.0871163,16.0027357 25.2066854,16.6050446 24.9105351,17.0517075 C24.7255165,17.332526 24.4190003,17.4838013 24.1073012,17.4838013" mask="url(#b)"/></g><path fill="#24387D" d="M0.965652476,47 C0.654435514,47 0.347437217,46.8487247 0.162418612,46.5679062 C-0.133249555,46.1212433 -0.0141626619,45.5189344 0.429881989,45.2206331 L23.5722742,29.6803105 C24.0157162,29.3820091 24.614164,29.5024466 24.90935,29.9492309 C25.2055003,30.3958938 25.0859313,30.9982027 24.6424893,31.296504 L1.5000971,46.8368266 C1.33520755,46.9464587 1.14886308,47 0.965652476,47"/><g transform="translate(44.356 8.797)"><mask id="d" fill="#fff"><use xlink:href="#c"/></mask><path fill="#1E3791" d="M8.67789772,7.12271892 C8.49468711,7.12271892 8.30870424,7.06917765 8.14393523,6.95954553 L0.429804487,1.77976176 C-0.014119631,1.48146042 -0.133327058,0.879151508 0.162461643,0.432488642 C0.457647677,-0.0133243617 1.05561334,-0.134733132 1.50001959,0.163568216 L9.21415034,5.34335199 C9.65771285,5.64165333 9.77728188,6.24396224 9.48113158,6.69062511 C9.29611298,6.97144359 8.98959681,7.12271892 8.67789772,7.12271892" mask="url(#d)"/></g><path fill="#24387D" d="M0.965652476,15.9193548 C0.654435514,15.9193548 0.347437217,15.7680795 0.162418612,15.487261 C-0.133249555,15.0405982 -0.0141626619,14.4382893 0.429881989,14.1399879 L8.14401273,8.96020413 C8.58745472,8.66190278 9.18590252,8.78331155 9.48108855,9.22912456 C9.77723885,9.67578742 9.65766982,10.2780963 9.21422784,10.5763977 L1.5000971,15.7561815 C1.33520755,15.8658136 1.14886308,15.9193548 0.965652476,15.9193548"/><path fill="#EA5B0C" d="M8.67883101 20.3410862C8.14583278 20.3410862 7.71456466 20.1052279 7.71456466 19.8131437L7.71456466 1.15935132C7.71456466.867267127 8.14583278.631408814 8.67883101.631408814 9.21231136.631408814 9.64309735.867267127 9.64309735 1.15935132L9.64309735 19.8131437C9.64309735 20.1052279 9.21231136 20.3410862 8.67883101 20.3410862M45.320952 20.3410862C44.7879538 20.3410862 44.3566857 20.1052279 44.3566857 19.8131437L44.3566857 1.15935132C44.3566857.867267127 44.7879538.631408814 45.320952.631408814 45.8544324.631408814 46.2852184.867267127 46.2852184 1.15935132L46.2852184 19.8131437C46.2852184 20.1052279 45.8544324 20.3410862 45.320952 20.3410862"/><path fill="#EA5B0C" d="M45.320952 1.94254032 8.67883101 1.94254032C8.14583278 1.94254032 7.71456466 1.50862538 7.71456466.971270161 7.71456466.433914945 8.14583278 0 8.67883101 0L45.320952 0C45.8544324 0 46.2852184.433914945 46.2852184.971270161 46.2852184 1.50862538 45.8544324 1.94254032 45.320952 1.94254032M38.5710876 8.57653384 15.4286954 8.57653384C14.8956972 8.57653384 14.4644291 8.14261889 14.4644291 7.60526368 14.4644291 7.06790846 14.8956972 6.63399352 15.4286954 6.63399352L38.5710876 6.63399352C39.104568 6.63399352 39.535354 7.06790846 39.535354 7.60526368 39.535354 8.14261889 39.104568 8.57653384 38.5710876 8.57653384M38.5710876 12.7830487 15.4286954 12.7830487C14.8956972 12.7830487 14.4644291 12.3491338 14.4644291 11.8117785 14.4644291 11.2744233 14.8956972 10.8405084 15.4286954 10.8405084L38.5710876 10.8405084C39.104568 10.8405084 39.535354 11.2744233 39.535354 11.8117785 39.535354 12.3491338 39.104568 12.7830487 38.5710876 12.7830487M38.5710876 16.7275854 15.4286954 16.7275854C14.8956972 16.7275854 14.4644291 16.2936704 14.4644291 15.7563152 14.4644291 15.21896 14.8956972 14.7850451 15.4286954 14.7850451L38.5710876 14.7850451C39.104568 14.7850451 39.535354 15.21896 39.535354 15.7563152 39.535354 16.2936704 39.104568 16.7275854 38.5710876 16.7275854M33.7497559 21.0883144 20.2500271 21.0883144C19.7170289 21.0883144 19.2857608 20.6543994 19.2857608 20.1170442 19.2857608 19.579689 19.7170289 19.145774 20.2500271 19.145774L33.7497559 19.145774C34.2832363 19.145774 34.7140223 19.579689 34.7140223 20.1170442 34.7140223 20.6543994 34.2832363 21.0883144 33.7497559 21.0883144"/><g transform="translate(0 13.976)"><mask id="f" fill="#fff"><use xlink:href="#e"/></mask><path fill="#1E3791" d="M26.9989514,19.4260505 C26.8157408,19.4260505 26.6297579,19.3725092 26.4649889,19.2628771 L0.429797616,1.78001422 C-0.0141265019,1.48171288 -0.133333929,0.879403967 0.162454772,0.432741101 C0.45667654,-0.0140431729 1.05560647,-0.134480673 1.50001272,0.163820675 L27.535204,17.6466836 C27.9787665,17.9449849 28.0983355,18.5472938 27.8021852,18.9939567 C27.6171666,19.2747752 27.3106505,19.4260505 26.9989514,19.4260505" mask="url(#f)"/></g><path fill="#24387D" d="M27.0008437,33.4022177 C26.6896268,33.4022177 26.3826285,33.2509424 26.1976099,32.9701239 C25.9019417,32.5234611 26.0210286,31.9211522 26.4650732,31.6228508 L52.5002645,14.1399879 C52.9437065,13.8416866 53.54119,13.9621241 53.8373403,14.4089083 C54.1334906,14.8555712 54.0139216,15.4578801 53.5704796,15.7561815 L27.5352884,33.2390444 C27.3703988,33.3486765 27.1840543,33.4022177 27.0008437,33.4022177"/></g></g><g transform="translate(106 178)"><circle cx="48" cy="48" r="47.375" fill="#EEF2FF" stroke="#A8B7EE" stroke-width="1.25"/><g fill="#24387D" fill-rule="nonzero" transform="translate(32 24)"><path d="M27.2086917 18 5.78089633 18C5.35400634 18 5 18.4533333 5 19 5 19.5466667 5.35400634 20 5.78089633 20L27.2191037 20C27.6459937 20 28 19.5466667 28 19 28 18.4533333 27.6459937 18 27.2086917 18ZM27.2086917 22 5.78089633 22C5.35400634 22 5 22.4533333 5 23 5 23.5466667 5.35400634 24 5.78089633 24L27.2191037 24C27.6459937 24 28 23.5466667 28 23 28 22.4533333 27.6459937 22 27.2086917 22ZM27.2086917 26 5.78089633 26C5.35400634 26 5 26.4533333 5 27 5 27.5466667 5.35400634 28 5.78089633 28L27.2191037 28C27.6459937 28 28 27.5466667 28 27 28 26.4533333 27.6459937 26 27.2086917 26ZM27.2086917 30 5.78089633 30C5.35400634 30 5 30.4533333 5 31 5 31.5466667 5.35400634 32 5.78089633 32L27.2191037 32C27.6459937 32 28 31.5466667 28 31 28 30.4533333 27.6459937 30 27.2086917 30Z"/><path d="M32.2184481,0 L7.96977251,0 C7.93892178,0 7.91835463,0 7.89778747,0 C7.87722032,0 7.85665316,0.0103225806 7.84636959,0.0103225806 C7.83608601,0.0103225806 7.83608601,0.0103225806 7.82580243,0.0103225806 C7.80523528,0.0103225806 7.78466812,0.0206451613 7.76410097,0.0309677419 C7.76410097,0.0309677419 7.75381739,0.0309677419 7.75381739,0.0309677419 C7.73325023,0.0412903226 7.71268308,0.0412903226 7.69211592,0.0516129032 C7.69211592,0.0516129032 7.69211592,0.0516129032 7.68183235,0.0516129032 C7.66126519,0.0619354839 7.64069804,0.0722580645 7.62013088,0.0825806452 C7.62013088,0.0825806452 7.6098473,0.0825806452 7.6098473,0.0825806452 C7.58928015,0.0929032258 7.57899657,0.103225806 7.55842942,0.113548387 C7.55842942,0.113548387 7.54814584,0.113548387 7.54814584,0.123870968 C7.52757868,0.134193548 7.51729511,0.144516129 7.50701153,0.15483871 C7.50701153,0.15483871 7.49672795,0.16516129 7.49672795,0.16516129 C7.4761608,0.175483871 7.46587722,0.196129032 7.44531007,0.216774194 C7.44531007,0.216774194 7.44531007,0.216774194 7.44531007,0.216774194 L0.246805859,7.44258065 C0.246805859,7.44258065 0.246805859,7.44258065 0.236522281,7.45290323 C0.215955126,7.47354839 0.205671549,7.48387097 0.195387971,7.50451613 C0.195387971,7.51483871 0.185104394,7.51483871 0.185104394,7.52516129 C0.174820816,7.53548387 0.164537239,7.55612903 0.154253662,7.56645161 C0.154253662,7.56645161 0.143970084,7.57677419 0.143970084,7.58709677 C0.102835774,7.59741935 0.0925521969,7.61806452 0.0925521969,7.63870968 C0.0925521969,7.63870968 0.0925521969,7.64903226 0.0822686195,7.64903226 C0.0719850421,7.66967742 0.0617014646,7.69032258 0.0514178872,7.71096774 C0.0514178872,7.71096774 0.0514178872,7.72129032 0.0514178872,7.72129032 C0.0411343098,7.74193548 0.0308507323,7.76258065 0.0308507323,7.78322581 C0.0308507323,7.78322581 0.0308507323,7.79354839 0.0308507323,7.79354839 C0.0205671549,7.81419355 0.0205671549,7.83483871 0.0102835774,7.85548387 C0.0102835774,7.86580645 0.0102835774,7.86580645 0.0102835774,7.87612903 C0.0102835774,7.89677419 0,7.91741935 0,7.92774194 C0,7.9483871 0,7.97935484 0,8 L0,47.2258065 C0,47.6490323 0.349641633,48 0.771268308,48 L32.2287317,48 C32.6503584,48 33,47.6490323 33,47.2258065 L33,0.774193548 C32.9897164,0.350967742 32.6503584,0 32.2184481,0 Z M7.19850421,2.64258065 L7.19850421,7.22580645 L2.63259582,7.22580645 L7.19850421,2.64258065 Z M31.4471798,46.4516129 L1.54253662,46.4516129 L1.54253662,8.77419355 L7.96977251,8.77419355 C8.39139919,8.77419355 8.74104082,8.42322581 8.74104082,8 L8.74104082,1.5483871 L31.4574634,1.5483871 L31.4471798,46.4516129 L31.4471798,46.4516129 Z"/><path d="M11.7460503 41 27.2539497 41C27.6617905 41 28 40.5466667 28 40 28 39.4533333 27.6617905 39 27.2539497 39L11.7460503 39C11.3382095 39 11 39.4533333 11 40 11 40.5466667 11.3282621 41 11.7460503 41ZM27.2339122 5.57894737C27.6527068 5.57894737 28 5.22105263 28 4.78947368 28 4.35789474 27.6527068 4 27.2339122 4L18.7660878 4C18.3472932 4 18 4.35789474 18 4.78947368L18 13.2105263C18 13.6421053 18.3472932 14 18.7660878 14L27.2339122 14C27.6527068 14 28 13.6421053 28 13.2105263L28 5.1887207C28 4.75714176 27.6527068 4.39924702 27.2339122 4.39924702 26.8151175 4.39924702 26.4678243 4.75714176 26.4678243 5.1887207L26.4678243 12.4210526 19.5321757 12.4210526 19.5321757 5.57894737 27.2339122 5.57894737Z"/></g></g><g transform="translate(274 178)"><circle cx="48" cy="48" r="47.375" fill="#EEF2FF" stroke="#A8B7EE" stroke-width="1.25"/><g transform="translate(18 20)"><polyline stroke="#24387D" stroke-width="1.2" points="4.891 39.993 19.251 24.835 31.217 28.824 48.768 12.071 52.838 8.082"/><circle cx="4.891" cy="39.993" r="2.591" fill="#A8B7EE" stroke="#24387D" stroke-width="1.2"/><circle cx="19.251" cy="24.835" r="4.187" fill="#FCC2A2" stroke="#EA5B0C" stroke-width="1.2"/><circle cx="31.217" cy="28.824" r="2.591" fill="#A8B7EE" stroke="#24387D" stroke-width="1.2"/><circle cx="47.172" cy="13.666" r="2.591" fill="#A8B7EE" stroke="#24387D" stroke-width="1.2"/><path fill="#A8B7EE" stroke="#24387D" stroke-width="1.2"/><path fill="#FFF" stroke="#24387D" stroke-width="1.08" d="M33,5.61834761 C38.0282754,5.61834761 42.580695,7.64171512 45.8759339,10.9135835 C49.1697767,14.1840657 51.2073952,18.7021023 51.2073952,23.6927825 C51.2073952,28.1777966 49.5618265,32.2811609 46.8376328,35.4402846 C43.9770605,38.7575605 39.9275145,41.0341539 35.3445259,41.618815 L35.3442146,58.7616524 C35.3442146,59.209003 35.16289,59.614003 34.8697276,59.9071654 C34.5765653,60.2003277 34.1715653,60.3816524 33.7242146,60.3816524 L32.2757854,60.3816524 C31.8284347,60.3816524 31.4234347,60.2003277 31.1302724,59.9071654 C30.83711,59.614003 30.6557854,59.209003 30.6557854,58.7616426 L30.6554741,41.618815 C26.0724855,41.0341539 22.0229395,38.7575605 19.1623672,35.4402846 C16.4381735,32.2811609 14.7926048,28.1777966 14.7926048,23.6927825 C14.7926048,18.7021023 16.8302233,14.1840657 20.1240661,10.9135835 C23.419305,7.64171512 27.9717246,5.61834761 33,5.61834761 Z M33,10.2658661 C29.2672827,10.2658661 25.8881121,11.7684074 23.4420088,14.1971624 C20.9945095,16.6273035 19.4810341,19.9846048 19.4810341,23.6927825 C19.4810341,27.4009603 20.9945095,30.7582616 23.4420088,33.1884027 C25.8881121,35.6171577 29.2672827,37.119699 33,37.119699 C36.7327173,37.119699 40.1118879,35.6171577 42.5579912,33.1884027 C45.0054905,30.7582616 46.5189659,27.4009603 46.5189659,23.6927825 C46.5189659,19.9846048 45.0054905,16.6273035 42.5579912,14.1971624 C40.1118879,11.7684074 36.7327173,10.2658661 33,10.2658661 Z" transform="rotate(-45 33 33)"/></g></g><g transform="translate(433 178)"><circle cx="48" cy="48" r="47.375" fill="#EEF2FF" stroke="#A8B7EE" stroke-width="1.25"/><g transform="translate(26 26)"><path fill="#24387D" d="M13.9107791 41.7594296 13.9107791 37.1375701 12.6704955 37.1375701 12.6704955 41.7594296 4.84775556 41.7594296 4.84775556 37.1375701 3.60747189 37.1375701 3.60747189 41.7594296 1.24028367 41.7594296 1.24028367 36.8790409C1.24028367 33.8604317 3.02831451 31.2519582 5.60050899 30.0561559L8.13902566 32.9665827 8.13902566 33.8664265 9.37930933 33.8664265 9.37930933 32.9665827 11.91791 30.0561559C14.4901045 31.2519582 16.2780513 33.8605157 16.2780513 36.8790409L16.2780513 41.7594296 13.9107791 41.7594296ZM8.75908351 31.7908546 6.85238252 29.6047798C7.46152239 29.4449419 8.10047676 29.3595214 8.75908351 29.3595214 9.41769027 29.3595214 10.0566446 29.4449419 10.6657845 29.6047798L8.75908351 31.7908546ZM7.17799058 22.8538764C8.03354108 23.4545073 9.97837105 24.5167614 13.1612171 24.6610607 12.6775502 26.6432015 10.8878396 28.1191191 8.75899953 28.1191191 6.56666712 28.1191191 4.73320065 26.5538334 4.31646937 24.4821565 5.60731173 24.0322082 6.53399714 23.4206583 7.17799058 22.8538764ZM8.75908351 19.0546401C11.2035375 19.0546401 13.2009418 21.0006641 13.286774 23.4248579 10.548794 23.3119719 8.83315788 22.4521399 8.0431993 21.9383573 8.31329358 21.5876043 8.43523913 21.3441098 8.44968447 21.3142924L7.33571355 20.7689286C7.30178379 20.8362907 6.55222178 22.2779393 4.24600634 23.186571 4.44950088 20.8744233 6.39525468 19.0546401 8.75908351 19.0546401L8.75908351 19.0546401ZM14.5311729 23.5869636C14.5311729 20.4038969 11.9418456 17.8142377 8.75908351 17.8142377 5.57632144 17.8142377 2.98699412 20.4038129 2.98699412 23.5869636 2.98699412 25.7302022 4.16185383 27.6029007 5.90041777 28.5986327 2.47006928 29.7865397 0 33.0494833 0 36.8791249L0 42.999916 17.518251 42.999916 17.518251 36.8791249C17.518251 33.0494833 15.0480978 29.7865397 11.6177493 28.5986327 13.3563132 27.6029007 14.5311729 25.7301182 14.5311729 23.5869636ZM39.3925281 41.7594296 39.3925281 37.1375701 38.1522444 37.1375701 38.1522444 41.7594296 30.3295045 41.7594296 30.3295045 37.1375701 29.0892209 37.1375701 29.0892209 41.7594296 26.7219487 41.7594296 26.7219487 36.8790409C26.7219487 33.8604317 28.5098955 31.2520422 31.08209 30.0561559L33.6206907 32.9665827 33.6206907 41.7594296 34.8609743 41.7594296 34.8609743 32.9665827 37.399575 30.0561559C39.9717695 31.2519582 41.7598003 33.8605157 41.7598003 36.8790409L41.7598003 41.7594296 39.3925281 41.7594296ZM28.0063242 28.1191191 28.9054627 25.7868972C29.2868365 26.7084637 29.9003436 27.5097529 30.6724974 28.1191191L28.0063242 28.1191191ZM36.1476175 29.6047798 34.2409165 31.7908546 32.3342155 29.6047798C32.9433554 29.4449419 33.5823097 29.3595214 34.2409165 29.3595214 34.8995232 29.3595214 35.5385616 29.4449419 36.1476175 29.6047798L36.1476175 29.6047798ZM38.7293022 24.2069968C38.4258661 26.4135658 36.5293272 28.1190351 34.2410005 28.1190351 31.9525898 28.1190351 30.0561349 26.4134818 29.7526987 24.2069968L38.7293022 24.2069968ZM34.2410005 19.0546401C36.5293272 19.0546401 38.4259501 20.7601934 38.7293022 22.9667624L36.5457042 22.9667624 36.5457042 21.3861061 35.3054205 21.3861061 35.3054205 22.9667624 29.7526987 22.9667624C30.0560509 20.7601094 31.9525058 19.0546401 34.2410005 19.0546401L34.2410005 19.0546401ZM40.7068861 28.1191191 37.8094195 28.1191191C38.6166789 27.4820354 39.2500063 26.6348862 39.626593 25.6601524L40.7068861 28.1191191ZM42.6064485 29.3595214 40.0094785 23.4487118C39.9355721 20.3293954 37.3773191 17.8142377 34.2408325 17.8142377 31.0995588 17.8142377 28.5381143 20.3372908 28.4719345 23.4633265L26.198893 29.3595214 29.7524468 29.3595214C27.1965453 30.8912101 25.481749 33.6884989 25.481749 36.8792089L25.481749 43 43 43 43 36.8792089C43 33.6884989 41.2853717 30.8912101 38.7293862 29.3595214L42.6064485 29.3595214Z"/><path fill="#EA5B0C" d="M30.7988102,12.978785 L30.5971633,13.001547 C30.3672976,13.0275007 30.1415472,13.0406876 29.9264627,13.0406876 C26.6734056,13.0406036 24.0268848,10.3938295 24.0268848,7.14054498 C24.0268848,3.88717648 26.6734056,1.24048638 29.9264627,1.24048638 C33.1795199,1.24048638 35.8259567,3.88717648 35.8259567,7.14054498 C35.8259567,9.28252368 34.6607552,11.2601289 32.7852125,12.3017209 L32.2471235,12.6004825 L33.2045473,14.3559273 L30.7988102,12.978785 Z M23.7069877,3.64007032 C23.1222034,4.67519484 22.7866011,5.86906534 22.7866011,7.14037699 C22.7866011,8.41177263 23.1221194,9.60564313 23.7069877,10.6407677 L23.7069877,13.0405196 L13.4287919,13.0405196 L11.1311428,14.3559273 L11.8485388,13.0405196 L8.34268817,13.0405196 L8.34268817,1.24048638 L23.7069877,1.24048638 L23.7069877,3.64007032 L23.7069877,3.64007032 Z M37.0662404,7.14046098 C37.0662404,3.20322492 33.863406,0 29.9264627,0 C27.991207,0 26.2345864,0.775167497 24.9472714,2.02984862 L24.9472714,0 L7.10248848,0 L7.10248848,14.280922 L9.75933937,14.280922 L7.94367762,17.6101358 L13.7586831,14.280922 L24.9472714,14.280922 L24.9472714,12.2510733 C26.2345024,13.5057545 27.991291,14.280922 29.9264627,14.280922 C30.1226506,14.280922 30.3251374,14.2721027 30.5307315,14.2544643 L36.3920965,17.6101358 L33.9125369,13.0639535 C35.8721482,11.7435902 37.0662404,9.52643813 37.0662404,7.14046098 L37.0662404,7.14046098 Z"/></g></g><g transform="translate(353)"><circle cx="48" cy="48" r="47.375" fill="#EEF2FF" stroke="#A8B7EE" stroke-width="1.25"/><g fill-rule="nonzero" transform="translate(23 27)"><path fill="#24387D" d="M46.1238039,3.15338245 L20.8162468,3.15338245 C20.1718414,3.15338245 19.5762546,2.8979683 19.1173599,2.44608171 L17.8187854,1.13954008 C17.0865065,0.402768475 16.1198985,0 15.0849443,0 L3.85666862,0 C1.72817809,0.00982362134 0,1.7486046 0,3.89015405 L0,40.1098459 C0,42.2513954 1.72817809,44 3.86643234,44 L46.1335677,44 C48.2620582,44 50,42.261219 50,40.1098459 L50,7.0435365 C49.9902363,4.90198705 48.2620582,3.15338245 46.1238039,3.15338245 Z M46.1238039,7.09265461 L45.3427065,7.09265461 C44.9423941,7.09265461 44.6104277,7.42665774 44.6104277,7.82942621 C44.6104277,8.23219469 44.9423941,8.56619781 45.3427065,8.56619781 L46.1238039,8.56619781 C47.4419059,8.56619781 48.5256786,9.64679616 48.5256786,10.9828087 L48.5256786,40.1196696 C48.5256786,41.4458585 47.4516696,42.5362804 46.1238039,42.5362804 L3.86643234,42.5362804 C2.5483304,42.5362804 1.4645577,41.4556821 1.4645577,40.1196696 L1.4645577,10.9828087 C1.4645577,9.65661978 2.53856669,8.56619781 3.86643234,8.56619781 L42.2183167,8.56619781 C42.6186292,8.56619781 42.9505956,8.23219469 42.9505956,7.82942621 C42.9505956,7.42665774 42.6186292,7.09265461 42.2183167,7.09265461 L3.86643234,7.09265461 C2.95840656,7.09265461 2.12849053,7.40701049 1.4645577,7.93748605 L1.4645577,3.89015405 C1.4645577,2.56396517 2.53856669,1.4735432 3.86643234,1.4735432 L15.0947081,1.4735432 C15.7391135,1.4735432 16.3347003,1.72895736 16.793595,2.18084394 L18.0921695,3.48738558 C18.8244483,4.22415718 19.7910564,4.62692565 20.8260105,4.62692565 L46.1433314,4.62692565 C47.4614333,4.62692565 48.545206,5.707524 48.545206,7.0435365 L48.5256786,7.93748605 C47.8617458,7.40701049 47.0318297,7.09265461 46.1238039,7.09265461 Z"/><path fill="#EA5B0C" d="M31.8285482,22.2279785 L31.8285482,18.9678712 C31.8285482,15.123864 28.767146,12 25,12 C21.232854,12 18.1714518,15.123864 18.1714518,18.9678712 L18.1714518,22.2279785 C16.855335,22.5588551 15.882553,23.7655814 15.882553,25.2058676 C15.882553,25.6048658 16.2068136,25.9357424 16.5978338,25.9357424 C16.9888541,25.9357424 17.3131147,25.6048658 17.3131147,25.2058676 C17.3131147,24.3202862 18.0188585,23.6001431 18.8867327,23.6001431 L31.1228044,23.6001431 C31.9906785,23.6001431 32.6964224,24.3202862 32.6964224,25.2058676 L32.6964224,29.8867979 C32.6964224,34.2173882 29.2439999,37.7402504 25,37.7402504 C20.7560001,37.7402504 17.3035776,34.2173882 17.3035776,29.8867979 L17.3035776,28.3297317 C17.3035776,27.9307335 16.979317,27.5998569 16.5882968,27.5998569 C16.1972765,27.5998569 15.8730159,27.9307335 15.8730159,28.3297317 L15.8730159,29.8867979 C15.8730159,35.0251163 19.9644226,39.2 25,39.2 C30.0355774,39.2 34.1269841,35.0251163 34.1269841,29.8867979 L34.1269841,25.2058676 C34.1269841,23.7753131 33.144665,22.5588551 31.8285482,22.2279785 Z M22.6538787,22.1403936 L22.6538787,18.9678712 C22.6538787,17.6540966 23.7029573,16.5738819 25,16.5738819 C26.2875056,16.5738819 27.3461213,17.6443649 27.3461213,18.9678712 L27.3461213,22.1403936 L22.6538787,22.1403936 Z M30.3979864,22.1403936 L28.767146,22.1403936 L28.767146,18.9678712 C28.767146,16.8463685 27.0790831,15.1141324 24.9904629,15.1141324 C22.9018427,15.1141324 21.2137798,16.8366369 21.2137798,18.9678712 L21.2137798,22.1403936 L19.5829394,22.1403936 L19.5829394,18.9678712 C19.5829394,15.9315921 22.0053574,13.4597496 24.9809258,13.4597496 C27.9564943,13.4597496 30.3789123,15.9315921 30.3789123,18.9678712 L30.3789123,22.1403936 L30.3979864,22.1403936 Z"/><path fill="#24387D" d="M25.3968254,26.4 C24.0797028,26.4 23.015873,27.4734177 23.015873,28.7797468 C23.015873,29.8329114 23.6946977,30.7240506 24.636947,31.0379747 L24.636947,32.8405063 C24.636947,33.2556962 24.9814252,33.6 25.3968254,33.6 C25.8122256,33.6 26.1567038,33.2556962 26.1567038,32.8405063 L26.1567038,31.0379747 C27.0989531,30.7240506 27.7777778,29.8329114 27.7777778,28.7797468 C27.7777778,27.4734177 26.713948,26.4 25.3968254,26.4 Z M25.3968254,29.6506329 C24.9206349,29.6506329 24.5356299,29.2658228 24.5356299,28.7898734 C24.5356299,28.3139241 24.9206349,27.9291139 25.3968254,27.9291139 C25.8730159,27.9291139 26.2580209,28.3139241 26.2580209,28.7898734 C26.2580209,29.2556962 25.8730159,29.6506329 25.3968254,29.6506329 Z"/></g></g><g transform="translate(194)"><circle cx="48" cy="48" r="47.375" fill="#EEF2FF" stroke="#A8B7EE" stroke-width="1.25"/><g transform="translate(16 12)"><polyline stroke="#24387D" stroke-width=".75" points="5.002 61.889 27.002 53 26.739 24.486 68.002 23"/><g transform="translate(12 11)"><mask id="h" fill="#fff"><use xlink:href="#g"/></mask><circle cx="15" cy="15" r="14.5" stroke="#24387D"/><path fill="#EA5B0C" d="M19.9107791,29.7594296 L19.9107791,25.1375701 L18.6704955,25.1375701 L18.6704955,29.7594296 L10.8477556,29.7594296 L10.8477556,25.1375701 L9.60747189,25.1375701 L9.60747189,29.7594296 L7.24028367,29.7594296 L7.24028367,24.8790409 C7.24028367,21.8604317 9.02831451,19.2519582 11.600509,18.0561559 L14.1390257,20.9665827 L14.1390257,21.8664265 L15.3793093,21.8664265 L15.3793093,20.9665827 L17.91791,18.0561559 C20.4901045,19.2519582 22.2780513,21.8605157 22.2780513,24.8790409 L22.2780513,29.7594296 L19.9107791,29.7594296 Z M14.7590835,19.7908546 L12.8523825,17.6047798 C13.4615224,17.4449419 14.1004768,17.3595214 14.7590835,17.3595214 C15.4176903,17.3595214 16.0566446,17.4449419 16.6657845,17.6047798 L14.7590835,19.7908546 Z M13.1779906,10.8538764 C14.0335411,11.4545073 15.9783711,12.5167614 19.1612171,12.6610607 C18.6775502,14.6432015 16.8878396,16.1191191 14.7589995,16.1191191 C12.5666671,16.1191191 10.7332007,14.5538334 10.3164694,12.4821565 C11.6073117,12.0322082 12.5339971,11.4206583 13.1779906,10.8538764 Z M14.7590835,7.0546401 C17.2035375,7.0546401 19.2009418,9.00066413 19.286774,11.4248579 C16.548794,11.3119719 14.8331579,10.4521399 14.0431993,9.93835726 C14.3132936,9.58760426 14.4352391,9.34410978 14.4496845,9.31429241 L13.3357135,8.76892861 C13.3017838,8.83629065 12.5522218,10.2779393 10.2460063,11.186571 C10.4495009,8.87442328 12.3952547,7.0546401 14.7590835,7.0546401 L14.7590835,7.0546401 Z M20.5311729,11.5869636 C20.5311729,8.40389686 17.9418456,5.81423772 14.7590835,5.81423772 C11.5763214,5.81423772 8.98699412,8.40381287 8.98699412,11.5869636 C8.98699412,13.7302022 10.1618538,15.6029007 11.9004178,16.5986327 C8.47006928,17.7865397 6,21.0494833 6,24.8791249 L6,30.999916 L23.518251,30.999916 L23.518251,24.8791249 C23.518251,21.0494833 21.0480978,17.7865397 17.6177493,16.5986327 C19.3563132,15.6029007 20.5311729,13.7301182 20.5311729,11.5869636 Z" mask="url(#h)"/></g><g transform="translate(0 56)"><mask id="j" fill="#fff"><use xlink:href="#i"/></mask><circle cx="5" cy="5" r="4.625" stroke="#24387D" stroke-width=".75"/><path fill="#24387D" d="M6.76444108,9.60597087 L6.76444108,8.13787952 L6.33964399,8.13787952 L6.33964399,9.60597087 L3.66035601,9.60597087 L3.66035601,8.13787952 L3.23555892,8.13787952 L3.23555892,9.60597087 L2.42479709,9.60597087 L2.42479709,8.0557601 C2.42479709,7.09692652 3.03719755,6.26836882 3.91817402,5.88853316 L4.78761584,6.81300358 L4.78761584,7.09883074 L5.21241293,7.09883074 L5.21241293,6.81300358 L6.08188351,5.88853316 C6.96285998,6.26836882 7.57523168,7.0969532 7.57523168,8.0557601 L7.57523168,9.60597087 L6.76444108,9.60597087 Z M4.99998562,6.43954431 L4.34694063,5.74515768 C4.555571,5.69438664 4.77441284,5.66725362 4.99998562,5.66725362 C5.22555839,5.66725362 5.44440023,5.69438664 5.6530306,5.74515768 L4.99998562,6.43954431 Z M4.45846138,3.60079505 C4.75148737,3.79157996 5.41759153,4.12899525 6.50771613,4.17483059 C6.34206022,4.80443946 5.72908447,5.27325116 4.99995685,5.27325116 C4.24908313,5.27325116 3.62112096,4.77605251 3.47839052,4.11800331 C3.92050396,3.97508137 4.23789366,3.78082813 4.45846138,3.60079505 Z M4.99998562,2.39400245 C5.83721097,2.39400245 6.52132183,3.01213916 6.55071936,3.7821621 C5.61296137,3.74630489 5.02535608,3.47318713 4.75479532,3.30998879 C4.84730259,3.19857532 4.88906893,3.12123152 4.89401646,3.11176031 L4.51248148,2.93853049 C4.50086054,2.95992743 4.2441356,3.4178539 3.45425694,3.70647244 C3.5239538,2.97203991 4.19037437,2.39400245 4.99998562,2.39400245 L4.99998562,2.39400245 Z M6.97692592,3.83365349 C6.97692592,2.82258151 6.09008145,2 4.99998562,2 C3.90988978,2 3.02304532,2.82255483 3.02304532,3.83365349 C3.02304532,4.51443359 3.42543471,5.10927912 4.02089276,5.42556427 C2.84599859,5.80289205 2,6.83933621 2,8.05578678 L2,10 L8,10 L8,8.05578678 C8,6.83933621 7.15397264,5.80289205 5.97907847,5.42556427 C6.57453653,5.10927912 6.97692592,4.51440692 6.97692592,3.83365349 Z" mask="url(#j)"/></g><g transform="translate(22 48)"><mask id="l" fill="#fff"><use xlink:href="#k"/></mask><circle cx="5" cy="5" r="4.625" stroke="#24387D" stroke-width=".75"/><path fill="#24387D" d="M6.76444108,9.60597087 L6.76444108,8.13787952 L6.33964399,8.13787952 L6.33964399,9.60597087 L3.66035601,9.60597087 L3.66035601,8.13787952 L3.23555892,8.13787952 L3.23555892,9.60597087 L2.42479709,9.60597087 L2.42479709,8.0557601 C2.42479709,7.09692652 3.03719755,6.26836882 3.91817402,5.88853316 L4.78761584,6.81300358 L4.78761584,7.09883074 L5.21241293,7.09883074 L5.21241293,6.81300358 L6.08188351,5.88853316 C6.96285998,6.26836882 7.57523168,7.0969532 7.57523168,8.0557601 L7.57523168,9.60597087 L6.76444108,9.60597087 Z M4.99998562,6.43954431 L4.34694063,5.74515768 C4.555571,5.69438664 4.77441284,5.66725362 4.99998562,5.66725362 C5.22555839,5.66725362 5.44440023,5.69438664 5.6530306,5.74515768 L4.99998562,6.43954431 Z M4.45846138,3.60079505 C4.75148737,3.79157996 5.41759153,4.12899525 6.50771613,4.17483059 C6.34206022,4.80443946 5.72908447,5.27325116 4.99995685,5.27325116 C4.24908313,5.27325116 3.62112096,4.77605251 3.47839052,4.11800331 C3.92050396,3.97508137 4.23789366,3.78082813 4.45846138,3.60079505 Z M4.99998562,2.39400245 C5.83721097,2.39400245 6.52132183,3.01213916 6.55071936,3.7821621 C5.61296137,3.74630489 5.02535608,3.47318713 4.75479532,3.30998879 C4.84730259,3.19857532 4.88906893,3.12123152 4.89401646,3.11176031 L4.51248148,2.93853049 C4.50086054,2.95992743 4.2441356,3.4178539 3.45425694,3.70647244 C3.5239538,2.97203991 4.19037437,2.39400245 4.99998562,2.39400245 L4.99998562,2.39400245 Z M6.97692592,3.83365349 C6.97692592,2.82258151 6.09008145,2 4.99998562,2 C3.90988978,2 3.02304532,2.82255483 3.02304532,3.83365349 C3.02304532,4.51443359 3.42543471,5.10927912 4.02089276,5.42556427 C2.84599859,5.80289205 2,6.83933621 2,8.05578678 L2,10 L8,10 L8,8.05578678 C8,6.83933621 7.15397264,5.80289205 5.97907847,5.42556427 C6.57453653,5.10927912 6.97692592,4.51440692 6.97692592,3.83365349 Z" mask="url(#l)"/></g><g transform="translate(63 18)"><mask id="n" fill="#fff"><use xlink:href="#m"/></mask><circle cx="5" cy="5" r="4.625" stroke="#24387D" stroke-width=".75"/><path fill="#24387D" d="M6.76444108,9.60597087 L6.76444108,8.13787952 L6.33964399,8.13787952 L6.33964399,9.60597087 L3.66035601,9.60597087 L3.66035601,8.13787952 L3.23555892,8.13787952 L3.23555892,9.60597087 L2.42479709,9.60597087 L2.42479709,8.0557601 C2.42479709,7.09692652 3.03719755,6.26836882 3.91817402,5.88853316 L4.78761584,6.81300358 L4.78761584,7.09883074 L5.21241293,7.09883074 L5.21241293,6.81300358 L6.08188351,5.88853316 C6.96285998,6.26836882 7.57523168,7.0969532 7.57523168,8.0557601 L7.57523168,9.60597087 L6.76444108,9.60597087 Z M4.99998562,6.43954431 L4.34694063,5.74515768 C4.555571,5.69438664 4.77441284,5.66725362 4.99998562,5.66725362 C5.22555839,5.66725362 5.44440023,5.69438664 5.6530306,5.74515768 L4.99998562,6.43954431 Z M4.45846138,3.60079505 C4.75148737,3.79157996 5.41759153,4.12899525 6.50771613,4.17483059 C6.34206022,4.80443946 5.72908447,5.27325116 4.99995685,5.27325116 C4.24908313,5.27325116 3.62112096,4.77605251 3.47839052,4.11800331 C3.92050396,3.97508137 4.23789366,3.78082813 4.45846138,3.60079505 Z M4.99998562,2.39400245 C5.83721097,2.39400245 6.52132183,3.01213916 6.55071936,3.7821621 C5.61296137,3.74630489 5.02535608,3.47318713 4.75479532,3.30998879 C4.84730259,3.19857532 4.88906893,3.12123152 4.89401646,3.11176031 L4.51248148,2.93853049 C4.50086054,2.95992743 4.2441356,3.4178539 3.45425694,3.70647244 C3.5239538,2.97203991 4.19037437,2.39400245 4.99998562,2.39400245 L4.99998562,2.39400245 Z M6.97692592,3.83365349 C6.97692592,2.82258151 6.09008145,2 4.99998562,2 C3.90988978,2 3.02304532,2.82255483 3.02304532,3.83365349 C3.02304532,4.51443359 3.42543471,5.10927912 4.02089276,5.42556427 C2.84599859,5.80289205 2,6.83933621 2,8.05578678 L2,10 L8,10 L8,8.05578678 C8,6.83933621 7.15397264,5.80289205 5.97907847,5.42556427 C6.57453653,5.10927912 6.97692592,4.51440692 6.97692592,3.83365349 Z" mask="url(#n)"/></g><path fill="#FFF" stroke="#24387D" stroke-width="1.08" d="M33,5.61834761 C38.0282754,5.61834761 42.580695,7.64171512 45.8759339,10.9135835 C49.1697767,14.1840657 51.2073952,18.7021023 51.2073952,23.6927825 C51.2073952,28.1777966 49.5618265,32.2811609 46.8376328,35.4402846 C43.9770605,38.7575605 39.9275145,41.0341539 35.3445259,41.618815 L35.3442146,58.7616524 C35.3442146,59.209003 35.16289,59.614003 34.8697276,59.9071654 C34.5765653,60.2003277 34.1715653,60.3816524 33.7242146,60.3816524 L32.2757854,60.3816524 C31.8284347,60.3816524 31.4234347,60.2003277 31.1302724,59.9071654 C30.83711,59.614003 30.6557854,59.209003 30.6557854,58.7616426 L30.6554741,41.618815 C26.0724855,41.0341539 22.0229395,38.7575605 19.1623672,35.4402846 C16.4381735,32.2811609 14.7926048,28.1777966 14.7926048,23.6927825 C14.7926048,18.7021023 16.8302233,14.1840657 20.1240661,10.9135835 C23.419305,7.64171512 27.9717246,5.61834761 33,5.61834761 Z M33,10.2658661 C29.2672827,10.2658661 25.8881121,11.7684074 23.4420088,14.1971624 C20.9945095,16.6273035 19.4810341,19.9846048 19.4810341,23.6927825 C19.4810341,27.4009603 20.9945095,30.7582616 23.4420088,33.1884027 C25.8881121,35.6171577 29.2672827,37.119699 33,37.119699 C36.7327173,37.119699 40.1118879,35.6171577 42.5579912,33.1884027 C45.0054905,30.7582616 46.5189659,27.4009603 46.5189659,23.6927825 C46.5189659,19.9846048 45.0054905,16.6273035 42.5579912,14.1971624 C40.1118879,11.7684074 36.7327173,10.2658661 33,10.2658661 Z" transform="rotate(-45 33 33)"/></g></g><g transform="translate(513)"><circle cx="48" cy="48" r="47.375" fill="#EEF2FF" stroke="#A8B7EE" stroke-width="1.25"/><g transform="translate(36 27)"><path stroke="#24387D" stroke-width="1.6" d="M21.7610464,0 L3.23895361,0 C1.4536086,0 0,1.44981475 0,3.23030861 L0,40.768918 C0,42.5501852 1.4536086,44 3.23895361,44 L21.7602709,44 C23.5463052,44 25,42.5501852 25,40.7696914 L25,3.23030861 C25,1.44981475 23.5463052,0 21.7610464,0 L21.7610464,0 Z"/><path stroke="#24387D" stroke-width="1.2" d="M12.5,38 C11.6727456,38 11,38.6727456 11,39.5 C11,40.3272544 11.6727456,41 12.5,41 C13.3272544,41 14,40.3272544 14,39.5 C14,38.6727456 13.3272544,38 12.5,38"/><rect width="20.4" height="1" x="2.2" y="35" fill="#24387D" stroke="#24387D" stroke-width="1.2" rx=".5"/><rect width="8.8" height="1" x="8.2" y="4.2" fill="#24387D" stroke="#24387D" stroke-width="1.2" rx=".5" transform="matrix(1 0 0 -1 0 8.8)"/><path stroke="#24387D" stroke-width="1.2" d="M15.7773344,22.0522383 C15.7254151,21.9145906 15.5927833,21.8235148 15.4445258,21.8235148 L14.022245,21.8235148 L14.022245,19.352929 C14.022245,19.1577489 13.8629452,19 13.6666852,19 L11.5332433,19 C11.3369833,19 11.1776835,19.1577489 11.1776835,19.352929 L11.1776835,21.8235148 L9.75540273,21.8235148 C9.60714518,21.8235148 9.47451342,21.9145906 9.42259411,22.0525692 C9.3706748,22.1898446 9.41013514,22.3455255 9.52143248,22.4422263 L12.3660357,24.9128121 C12.4328724,24.9710477 12.51646,25 12.6000059,25 C12.6835518,25 12.7671394,24.9710477 12.8343095,24.9124812 L15.6789127,22.4418954 C15.7901267,22.3451532 15.8292537,22.189886 15.7773344,22.0522383 L15.7773344,22.0522383 Z"/><use xlink:href="#o" fill="#EA5B0C" stroke="#24387D" stroke-width="1.2"/></g></g><g stroke-width="1.2" transform="translate(393 218.929)"><path fill="#A8B7EE" stroke="#A8B7EE" d="M11.4710678,2.67106781 L11.4710678,11.4710678 L11.2569092,2.8852963 L2.67106781,2.88508274 L11.4710678,2.67106781 Z" transform="rotate(45 7.071 7.071)"/><path fill="#FFF" stroke="#FFF" d="M13.4710678,2.67106781 L13.4710678,11.4710678 L13.2569092,2.8852963 L4.67106781,2.88508274 L13.4710678,2.67106781 Z" transform="rotate(45 9.071 7.071)"/></g><g stroke-width="1.2" transform="translate(473 40.929)"><path fill="#A8B7EE" stroke="#A8B7EE" d="M11.4710678,2.67106781 L11.4710678,11.4710678 L11.2569092,2.8852963 L2.67106781,2.88508274 L11.4710678,2.67106781 Z" transform="rotate(45 7.071 7.071)"/><path fill="#FFF" stroke="#FFF" d="M13.4710678,2.67106781 L13.4710678,11.4710678 L13.2569092,2.8852963 L4.67106781,2.88508274 L13.4710678,2.67106781 Z" transform="rotate(45 9.071 7.071)"/></g><g stroke-width="1.2" transform="rotate(-180 165.036 80.536)"><path fill="#A8B7EE" stroke="#A8B7EE" d="M11.4710678,2.67106781 L11.4710678,11.4710678 L11.2569092,2.8852963 L2.67106781,2.88508274 L11.4710678,2.67106781 Z" transform="rotate(45 7.071 7.071)"/><path fill="#FFF" stroke="#FFF" d="M13.4710678,2.67106781 L13.4710678,11.4710678 L13.2569092,2.8852963 L4.67106781,2.88508274 L13.4710678,2.67106781 Z" transform="rotate(45 9.071 7.071)"/></g><g stroke-width="1.2" transform="translate(230 218.929)"><path fill="#A8B7EE" stroke="#A8B7EE" d="M11.4710678,2.67106781 L11.4710678,11.4710678 L11.2569092,2.8852963 L2.67106781,2.88508274 L11.4710678,2.67106781 Z" transform="rotate(45 7.071 7.071)"/><path fill="#FFF" stroke="#FFF" d="M13.4710678,2.67106781 L13.4710678,11.4710678 L13.2569092,2.8852963 L4.67106781,2.88508274 L13.4710678,2.67106781 Z" transform="rotate(45 9.071 7.071)"/></g><g stroke-width="1.2" transform="translate(154 40.929)"><path fill="#A8B7EE" stroke="#A8B7EE" d="M171.471068,2.67106781 L171.471068,11.4710678 L171.256909,2.8852963 L162.671068,2.88508274 L171.471068,2.67106781 Z" transform="rotate(45 167.071 7.071)"/><path fill="#A8B7EE" stroke="#A8B7EE" d="M11.4710678,2.67106781 L11.4710678,11.4710678 L11.2569092,2.8852963 L2.67106781,2.88508274 L11.4710678,2.67106781 Z" transform="rotate(45 7.071 7.071)"/><path fill="#FFF" stroke="#FFF" d="M13.4710678,2.67106781 L13.4710678,11.4710678 L13.2569092,2.8852963 L4.67106781,2.88508274 L13.4710678,2.67106781 Z" transform="rotate(45 9.071 7.071)"/><path fill="#FFF" stroke="#FFF" d="M173.471068,2.67106781 L173.471068,11.4710678 L173.256909,2.8852963 L164.671068,2.88508274 L173.471068,2.67106781 Z" transform="rotate(45 169.071 7.071)"/></g></g></svg>