<svg xmlns="http://www.w3.org/2000/svg" width="813" height="730" viewBox="0 0 813 730">
  <g fill="none" fill-rule="evenodd" transform="rotate(50 339.42 728.725)">
    <g transform="translate(0 358)">
      <path fill="#293377" d="M28.4179203,0.04263142 C43.9298204,0.0191360166 56.5237469,12.5749689 56.5472423,28.0868691 C56.547272,28.1064851 56.5472812,28.1261012 56.5472698,28.1457172 L56.3077194,440.76902 C56.2986895,456.323 43.6996549,468.933809 28.1456897,468.957369 C12.6337895,468.980864 0.0398630143,456.425031 0.0163676109,440.913131 C0.0163378991,440.893515 0.0163287373,440.873899 0.0163401255,440.854283 L0.255890481,28.23098 C0.264920416,12.6769995 12.863955,0.0661905381 28.4179203,0.04263142 Z" opacity=".1" transform="matrix(-1 0 0 1 56.564 0)"/>
      <circle cx="28" cy="30" r="20" fill="#EA5B0C" transform="scale(-1 1) rotate(-83 0 61.648)"/>
    </g>
    <g transform="matrix(1 0 0 -1 75 518)">
      <path fill="#293377" d="M28.4179203,0.047085449 C43.9282177,0.0211379833 56.5228326,12.5736838 56.5487801,28.0839812 C56.5488145,28.1045625 56.5488263,28.1251438 56.5488155,28.1457252 L56.3061738,489.760104 C56.2979978,505.314558 43.7001245,517.926893 28.1456897,517.952915 C12.6353923,517.978862 0.0407773267,505.426316 0.014829861,489.916019 C0.0147954301,489.895438 0.0147836238,489.874856 0.0147944421,489.854275 L0.257436164,28.239896 C0.265612165,12.6854416 12.8634854,0.073106753 28.4179203,0.047085449 Z" opacity=".1" transform="matrix(-1 0 0 1 56.564 0)"/>
      <circle cx="28" cy="30" r="20" fill="#00983A" transform="scale(-1 1) rotate(-83 0 61.648)"/>
    </g>
    <g fill="#293377" transform="translate(150 358)">
      <path d="M28.4179203,0.048085333 C43.9278362,0.0215875111 56.522588,12.5733779 56.5490858,28.0832938 C56.5491214,28.1041049 56.5491338,28.1249159 56.5491231,28.145727 L56.3058661,500.758102 C56.2978601,516.31267 43.7002362,528.925341 28.1456897,528.951915 C12.6357737,528.978412 0.0410218945,516.426622 0.0145240725,500.916706 C0.014488518,500.895895 0.0144760966,500.875084 0.0144868082,500.854273 L0.257743798,28.2418977 C0.265749846,12.6873305 12.8633737,0.0746594039 28.4179203,0.048085333 Z" opacity=".1" transform="matrix(-1 0 0 1 56.564 0)"/>
      <circle cx="28" cy="30" r="20" transform="scale(-1 1) rotate(-83 0 61.648)"/>
    </g>
  </g>
</svg>
