<?xml version="1.0" encoding="utf-8"?>
<!-- Generator: Adobe Illustrator 25.2.1, SVG Export Plug-In . SVG Version: 6.00 Build 0)  -->
<svg version="1.1" xmlns="http://www.w3.org/2000/svg" xmlns:xlink="http://www.w3.org/1999/xlink" x="0px" y="0px"
	 viewBox="0 0 133.2 48.9" style="enable-background:new 0 0 133.2 48.9;" xml:space="preserve">
<style type="text/css">
	.st0{fill:#FFFFFF;}
	.st1{fill:#293377;}
	.st2{fill:#EA5B0C;}
	.st3{fill:#00983A;}
	.st4{fill:#662483;}
</style>
<g id="Ebene_1">
</g>
<g id="Ebene_2">
</g>
<g id="Ebene_3">
</g>
<g id="Ebene_4">
	<g>
		<path class="st1" d="M40.3,16.9h-1.4l0.4-2.2h1.4l0.1-0.7c0.4-2.5,2.1-3.5,4.2-3.5c0.9,0,1.7,0.2,2.5,0.5l-0.9,2.4
			c-0.5-0.3-1-0.5-1.6-0.5c-0.8,0-1.1,0.4-1.2,1l-0.2,0.7H46l-0.4,2.2h-2.3l-1.4,8.2c-0.4,2-1.2,2.8-3.2,2.8c-0.8,0-1.4-0.1-1.9-0.4
			l0.5-2.1c0.4,0.3,0.6,0.3,0.9,0.3c0.5,0,0.7-0.2,0.8-0.8L40.3,16.9z"/>
		<path class="st1" d="M53.5,17.9c-1.3-0.7-3.1-0.5-3.4,1.4l-0.8,4.4h-3l1.6-9.1h2.6l-0.1,2.5c0.6-1.9,2.1-3,3.7-2.6L53.5,17.9z"/>
		<path class="st1" d="M60.3,20.6l2.8,0.7c-0.5,1.8-1.8,2.7-4.3,2.7c-2.6,0-4.1-1.5-4.1-4c0-3.6,2.4-5.6,5-5.6s3.9,1.6,3.9,3.3
			c0,0.7-0.1,1.4-0.4,1.9h-5.4c-0.2,1.2,0.3,2,1.2,2C59.7,21.7,60.1,21.4,60.3,20.6z M60.5,18.1c0-0.1,0-0.3,0-0.4
			c0-0.6-0.2-1.2-1-1.2c-0.8,0-1.3,0.7-1.5,1.6H60.5z"/>
		<path class="st1" d="M70.6,20.6l2.8,0.7c-0.5,1.8-1.8,2.7-4.3,2.7c-2.6,0-4.1-1.5-4.1-4c0-3.6,2.4-5.6,5-5.6s3.9,1.6,3.9,3.3
			c0,0.7-0.1,1.4-0.4,1.9H68c-0.2,1.2,0.3,2,1.2,2C69.9,21.7,70.4,21.4,70.6,20.6z M70.8,18.1c0-0.1,0-0.3,0-0.4
			c0-0.6-0.2-1.2-1-1.2c-0.8,0-1.3,0.7-1.5,1.6H70.8z"/>
		<path class="st1" d="M80.3,23.7l0.9-5.4c0.1-0.8,0-1.5-0.8-1.5c-0.8,0-1.2,0.6-1.4,2.1l-0.8,4.8h-3l1.6-9.1h2.6l0,1.8
			c0.5-1.4,1.2-2.1,2.7-2.1c1.5,0,2.3,0.8,2.3,2.2c0.4-1.5,1.4-2.2,2.8-2.2c1.5,0,2.3,0.9,2.3,2.3c0,0.3,0,0.5-0.1,0.8l-0.5,3.1
			c-0.1,0.4,0,0.8,0.6,0.8c0.2,0,0.4,0,0.6-0.1l-0.5,2.2c-0.5,0.2-1.1,0.3-1.6,0.3c-1.8,0-2.5-0.9-2.2-2.7l0.5-2.8
			c0.1-0.8,0-1.5-0.8-1.5c-0.8,0-1.2,0.6-1.4,2.1l-0.8,4.8H80.3z"/>
		<path class="st1" d="M101.1,18.4c0,2.9-1.7,5.5-5.1,5.5c-2.4,0-4.2-1.3-4.2-3.9c0-3,1.7-5.7,5.2-5.7
			C99.5,14.4,101.1,15.8,101.1,18.4z M94.9,20.1c0,1.1,0.5,1.6,1.2,1.6c1.2,0,1.8-1.4,1.8-3.3c0-1.1-0.5-1.7-1.2-1.7
			C95.6,16.7,94.9,18.2,94.9,20.1z"/>
		<path class="st1" d="M102.7,14.6h3l0.4,3.9c0.2,1.7,0,3,0,3h0.1c0,0,0.3-1.6,1.1-3l2.1-3.9h3.1l-5.2,9.1h-3.2L102.7,14.6z"/>
		<path class="st1" d="M118.1,20.6l2.8,0.7c-0.5,1.8-1.8,2.7-4.3,2.7c-2.6,0-4.1-1.5-4.1-4c0-3.6,2.4-5.6,5-5.6s3.9,1.6,3.9,3.3
			c0,0.7-0.1,1.4-0.4,1.9h-5.4c-0.2,1.2,0.3,2,1.2,2C117.5,21.7,117.9,21.4,118.1,20.6z M118.3,18.1c0-0.1,0-0.3,0-0.4
			c0-0.6-0.2-1.2-1-1.2c-0.8,0-1.3,0.7-1.5,1.6H118.3z"/>
	</g>
	<g>
		<path class="st1" d="M62.3,28.4h0.9c0.9,0,1.4,0.4,1.4,1.1c0,0.8-0.4,1.1-1.3,1.1c-0.2,0-0.4,0-0.5-0.1v1.5h-0.4V28.4z M62.7,30.3
			c0.1,0,0.3,0,0.5,0c0.6,0,0.9-0.3,0.9-0.8c0-0.5-0.3-0.8-1-0.8h-0.4V30.3z"/>
		<path class="st1" d="M66.9,29.8c-0.4-0.1-0.8,0.1-1.1,0.7v1.6h-0.4v-2.7h0.4V30c0.4-0.5,0.8-0.7,1.2-0.6L66.9,29.8z"/>
		<path class="st1" d="M67.9,28.3c0.2,0,0.3,0.1,0.3,0.3c0,0.4-0.6,0.4-0.6,0C67.6,28.4,67.7,28.3,67.9,28.3z M67.7,32.1v-2.7h0.4
			v2.7H67.7z"/>
		<path class="st1" d="M71.4,29.4l-1.1,2.7h-0.4l-1.1-2.7h0.5l0.8,2.2l0.8-2.2H71.4z"/>
		<path class="st1" d="M73.4,32.1L73.4,32.1c0-0.2-0.1-0.3-0.1-0.3c-0.3,0.2-0.6,0.4-0.9,0.4c-0.4,0-0.7-0.3-0.7-0.7
			c0-0.6,0.5-0.9,1.6-0.9v-0.3c0-0.4-0.2-0.5-0.5-0.5c-0.2,0-0.5,0.1-0.8,0.2l-0.1-0.3c0.3-0.1,0.7-0.2,0.9-0.2
			c0.6,0,0.9,0.3,0.9,0.9v1.1c0,0.2,0,0.5,0,0.8H73.4z M73.3,30.8c-0.8,0-1.1,0.1-1.1,0.6c0,0.3,0.2,0.4,0.4,0.4
			c0.2,0,0.4-0.1,0.7-0.4V30.8z"/>
		<path class="st1" d="M76.6,32c-0.2,0.1-0.5,0.1-0.8,0.1c-0.8,0-1.2-0.5-1.2-1.4c0-0.9,0.4-1.4,1.2-1.4c0.2,0,0.5,0,0.7,0.1
			l-0.1,0.3c-0.2-0.1-0.4-0.1-0.6-0.1c-0.6,0-0.8,0.3-0.8,1c0,0.7,0.3,1.1,0.8,1.1c0.2,0,0.4,0,0.6-0.1L76.6,32z"/>
		<path class="st1" d="M79.5,29.4l-1.1,2.9c-0.3,0.7-0.7,1-1.4,1L76.9,33c0.3,0,0.5-0.1,0.7-0.2c0.2-0.1,0.3-0.3,0.4-0.6l0-0.1
			l-1.1-2.8h0.5l0.9,2.2l0.8-2.2H79.5z"/>
		<path class="st1" d="M79.9,30.7v-0.4h1.6v0.4H79.9z"/>
		<path class="st1" d="M84.8,31.9c-0.3,0.1-0.7,0.2-1,0.2c-1.1,0-1.6-0.6-1.6-1.9c0-1.3,0.6-1.9,1.6-1.9c0.3,0,0.7,0.1,1,0.2
			l-0.1,0.3c-0.3-0.1-0.6-0.2-0.8-0.2c-0.8,0-1.2,0.5-1.2,1.6c0,1,0.4,1.5,1.2,1.5c0.3,0,0.6-0.1,0.9-0.2L84.8,31.9z"/>
		<path class="st1" d="M87.3,32c-0.3,0.1-0.6,0.2-0.9,0.2c-0.8,0-1.2-0.5-1.2-1.4c0-0.9,0.4-1.4,1.2-1.4c0.6,0,1,0.4,1,1.1
			c0,0.1,0,0.2,0,0.3h-1.7c0,0.7,0.3,1.1,0.9,1.1c0.2,0,0.5-0.1,0.8-0.2L87.3,32z M86.9,30.5L86.9,30.5c0-0.5-0.2-0.8-0.6-0.8
			c-0.4,0-0.7,0.3-0.8,0.8H86.9z"/>
		<path class="st1" d="M88.7,29.8L88.7,29.8c0.4-0.3,0.7-0.4,1-0.4c0.5,0,0.8,0.3,0.8,0.9v1.8h-0.4v-1.8c0-0.4-0.2-0.6-0.5-0.6
			c-0.2,0-0.5,0.1-0.9,0.4v2h-0.4v-2.7h0.4V29.8z"/>
		<path class="st1" d="M93.1,32.1c-0.2,0.1-0.4,0.1-0.6,0.1c-0.6,0-0.8-0.3-0.8-0.9v-1.6h-0.4v-0.3h0.4v-0.9l0.4-0.1v1h0.8v0.3h-0.8
			v1.5c0,0.4,0.1,0.5,0.4,0.5c0.1,0,0.3,0,0.4-0.1L93.1,32.1z"/>
		<path class="st1" d="M95.6,32c-0.3,0.1-0.6,0.2-0.9,0.2c-0.8,0-1.2-0.5-1.2-1.4c0-0.9,0.4-1.4,1.2-1.4c0.6,0,1,0.4,1,1.1
			c0,0.1,0,0.2,0,0.3h-1.7c0,0.7,0.3,1.1,0.9,1.1c0.2,0,0.5-0.1,0.8-0.2L95.6,32z M95.3,30.5L95.3,30.5c0-0.5-0.2-0.8-0.6-0.8
			c-0.4,0-0.7,0.3-0.8,0.8H95.3z"/>
		<path class="st1" d="M98.2,29.8c-0.4-0.1-0.8,0.1-1.1,0.7v1.6h-0.4v-2.7h0.4V30c0.4-0.5,0.8-0.7,1.2-0.6L98.2,29.8z"/>
		<path class="st1" d="M100.7,32c-0.3,0.1-0.6,0.2-0.9,0.2c-0.8,0-1.2-0.5-1.2-1.4c0-0.9,0.4-1.4,1.2-1.4c0.6,0,1,0.4,1,1.1
			c0,0.1,0,0.2,0,0.3H99c0,0.7,0.3,1.1,0.9,1.1c0.2,0,0.5-0.1,0.8-0.2L100.7,32z M100.4,30.5L100.4,30.5c0-0.5-0.2-0.8-0.6-0.8
			c-0.4,0-0.7,0.3-0.8,0.8H100.4z"/>
		<path class="st1" d="M103.8,28.1v4c-0.4,0.1-0.7,0.2-0.9,0.2c-0.8,0-1.3-0.5-1.3-1.4c0-0.9,0.5-1.4,1.3-1.4c0.2,0,0.4,0,0.5,0.1
			v-1.4H103.8z M103.3,29.8L103.3,29.8c-0.2-0.1-0.3-0.1-0.5-0.1c-0.5,0-0.8,0.4-0.8,1.1c0,0.7,0.3,1.1,0.9,1.1c0.2,0,0.3,0,0.5-0.1
			V29.8z"/>
		<path class="st1" d="M109.4,30.8c0,0.9-0.5,1.4-1.4,1.4c-0.9,0-1.4-0.5-1.4-1.3v-2.4h0.4v2.4c0,0.6,0.3,1,1,1c0.6,0,0.9-0.3,0.9-1
			v-2.4h0.4V30.8z"/>
		<path class="st1" d="M112.1,29.8c-0.4-0.1-0.8,0.1-1.1,0.7v1.6h-0.4v-2.7h0.4V30c0.4-0.5,0.8-0.7,1.2-0.6L112.1,29.8z"/>
		<path class="st1" d="M113.3,29.5c0.2-0.1,0.4-0.2,0.6-0.2c0.8,0,1.2,0.5,1.2,1.4c0,1-0.4,1.5-1.3,1.5c-0.3,0-0.6-0.1-0.9-0.2v-3.9
			h0.4V29.5z M113.3,31.7c0.2,0.1,0.3,0.1,0.5,0.1c0.6,0,0.8-0.4,0.8-1.1c0-0.7-0.3-1-0.8-1c-0.2,0-0.4,0.1-0.6,0.2V31.7z"/>
		<path class="st1" d="M117.5,32.1L117.5,32.1c0-0.2-0.1-0.3-0.1-0.3c-0.3,0.2-0.6,0.4-0.9,0.4c-0.4,0-0.7-0.3-0.7-0.7
			c0-0.6,0.5-0.9,1.6-0.9v-0.3c0-0.4-0.2-0.5-0.5-0.5c-0.2,0-0.5,0.1-0.8,0.2l-0.1-0.3c0.3-0.1,0.7-0.2,0.9-0.2
			c0.6,0,0.9,0.3,0.9,0.9v1.1c0,0.2,0,0.5,0,0.8H117.5z M117.4,30.8c-0.8,0-1.1,0.1-1.1,0.6c0,0.3,0.2,0.4,0.4,0.4
			c0.2,0,0.4-0.1,0.7-0.4V30.8z"/>
		<path class="st1" d="M119.4,29.8L119.4,29.8c0.4-0.3,0.7-0.4,1-0.4c0.5,0,0.8,0.3,0.8,0.9v1.8h-0.4v-1.8c0-0.4-0.2-0.6-0.5-0.6
			c-0.2,0-0.5,0.1-0.9,0.4v2H119v-2.7h0.4V29.8z"/>
		<path class="st1" d="M91.3,39.3l-0.2-2.9l-1.2,2.9h-0.3l-1.2-2.9l-0.2,2.9h-0.4l0.3-3.7h0.4l1.2,3.1l1.3-3.1h0.4l0.3,3.7H91.3z"/>
		<path class="st1" d="M95,37.9c0,0.9-0.5,1.5-1.2,1.5c-0.8,0-1.2-0.5-1.2-1.4c0-0.9,0.5-1.4,1.3-1.4C94.5,36.5,95,37,95,37.9z
			 M93.8,36.9c-0.3,0-0.5,0.1-0.6,0.3S93,37.6,93,37.9s0.1,0.6,0.2,0.8s0.3,0.3,0.6,0.3c0.5,0,0.8-0.4,0.8-1.1
			C94.5,37.2,94.3,36.9,93.8,36.9z"/>
		<path class="st1" d="M96.4,36.7c0.2-0.1,0.4-0.2,0.6-0.2c0.8,0,1.2,0.5,1.2,1.4c0,1-0.4,1.5-1.3,1.5c-0.3,0-0.6-0.1-0.9-0.2v-3.9
			h0.4V36.7z M96.4,38.9c0.2,0.1,0.3,0.1,0.5,0.1c0.6,0,0.8-0.4,0.8-1.1c0-0.7-0.3-1-0.8-1c-0.2,0-0.4,0.1-0.6,0.2V38.9z"/>
		<path class="st1" d="M99.4,35.4c0.2,0,0.3,0.1,0.3,0.3c0,0.4-0.6,0.4-0.6,0C99.1,35.6,99.2,35.4,99.4,35.4z M99.2,39.3v-2.7h0.4
			v2.7H99.2z"/>
		<path class="st1" d="M100.8,39.3v-4h0.4v4H100.8z"/>
		<path class="st1" d="M102.7,35.4c0.2,0,0.3,0.1,0.3,0.3c0,0.4-0.6,0.4-0.6,0C102.4,35.6,102.5,35.4,102.7,35.4z M102.4,39.3v-2.7
			h0.4v2.7H102.4z"/>
		<path class="st1" d="M105.5,39.3c-0.2,0.1-0.4,0.1-0.6,0.1c-0.6,0-0.8-0.3-0.8-0.9v-1.6h-0.4v-0.3h0.4v-0.9l0.4-0.1v1h0.8v0.3
			h-0.8v1.5c0,0.4,0.1,0.5,0.4,0.5c0.1,0,0.3,0,0.4-0.1L105.5,39.3z"/>
		<path class="st1" d="M108.3,36.6l-1.1,2.9c-0.3,0.7-0.7,1-1.4,1l-0.1-0.3c0.3,0,0.5-0.1,0.7-0.2c0.2-0.1,0.3-0.3,0.4-0.6l0-0.1
			l-1.1-2.8h0.5l0.9,2.2l0.8-2.2H108.3z"/>
		<path class="st1" d="M111.8,35.6c1.2,0,1.8,0.6,1.8,1.8c0,1.3-0.6,1.9-1.8,1.9h-1.1v-3.7H111.8z M111.8,38.9
			c0.9,0,1.3-0.5,1.3-1.5c0-1-0.4-1.5-1.4-1.5h-0.6v3H111.8z"/>
		<path class="st1" d="M115.9,39.3L115.9,39.3c0-0.2-0.1-0.3-0.1-0.3c-0.3,0.2-0.6,0.4-0.9,0.4c-0.4,0-0.7-0.3-0.7-0.7
			c0-0.6,0.5-0.9,1.6-0.9v-0.3c0-0.4-0.2-0.5-0.5-0.5c-0.2,0-0.5,0.1-0.8,0.2l-0.1-0.3c0.3-0.1,0.7-0.2,0.9-0.2
			c0.6,0,0.9,0.3,0.9,0.9v1.1c0,0.2,0,0.5,0,0.8H115.9z M115.8,38c-0.8,0-1.1,0.1-1.1,0.6c0,0.3,0.2,0.4,0.4,0.4
			c0.2,0,0.4-0.1,0.7-0.4V38z"/>
		<path class="st1" d="M118.8,39.3c-0.2,0.1-0.4,0.1-0.6,0.1c-0.6,0-0.8-0.3-0.8-0.9v-1.6H117v-0.3h0.4v-0.9l0.4-0.1v1h0.8v0.3h-0.8
			v1.5c0,0.4,0.1,0.5,0.4,0.5c0.1,0,0.3,0,0.4-0.1L118.8,39.3z"/>
		<path class="st1" d="M120.9,39.3L120.9,39.3c0-0.2-0.1-0.3-0.1-0.3c-0.3,0.2-0.6,0.4-0.9,0.4c-0.4,0-0.7-0.3-0.7-0.7
			c0-0.6,0.5-0.9,1.6-0.9v-0.3c0-0.4-0.2-0.5-0.5-0.5c-0.2,0-0.5,0.1-0.8,0.2l-0.1-0.3c0.3-0.1,0.7-0.2,0.9-0.2
			c0.6,0,0.9,0.3,0.9,0.9v1.1c0,0.2,0,0.5,0,0.8H120.9z M120.8,38c-0.8,0-1.1,0.1-1.1,0.6c0,0.3,0.2,0.4,0.4,0.4
			c0.2,0,0.4-0.1,0.7-0.4V38z"/>
	</g>
	<g>
		<g>
			<circle class="st1" cx="22.8" cy="19.2" r="8.8"/>
		</g>
		<g>
			<path class="st0" d="M13.9,24l9.4-9.4c0.6-0.6,0.6-1.5,0-2l0,0c-0.6-0.6-1.5-0.6-2,0L11.9,22c-0.6,0.6-0.6,1.5,0,2l0,0
				C12.4,24.6,13.3,24.6,13.9,24z"/>
		</g>
		<g>
			<circle class="st2" cx="22.2" cy="13.7" r="0.9"/>
		</g>
		<g>
			<path class="st0" d="M22,21.9l9.5-9.5c0.6-0.6,0.6-1.5,0-2l0,0c-0.6-0.6-1.5-0.6-2,0L20,19.9c-0.6,0.6-0.6,1.5,0,2l0,0
				C20.6,22.5,21.5,22.5,22,21.9z"/>
		</g>
		<g>
			<circle class="st3" cx="21" cy="20.9" r="0.9"/>
		</g>
		<g>
			<path class="st0" d="M20.6,29.4L30,20c0.6-0.6,0.6-1.5,0-2l0,0c-0.6-0.6-1.5-0.6-2,0l-9.4,9.4c-0.6,0.6-0.6,1.5,0,2l0,0
				C19.2,29.9,20.1,29.9,20.6,29.4z"/>
		</g>
		<g>
			<circle class="st4" cx="29" cy="19.1" r="0.9"/>
		</g>
	</g>
</g>
</svg>
