<?xml version="1.0" encoding="utf-8"?>
<!-- Generator: Adobe Illustrator 25.2.1, SVG Export Plug-In . SVG Version: 6.00 Build 0)  -->
<svg version="1.1" id="Layer_1" xmlns="http://www.w3.org/2000/svg" xmlns:xlink="http://www.w3.org/1999/xlink" x="0px" y="0px"
	 viewBox="0 0 1440 193" style="enable-background:new 0 0 1440 193;" xml:space="preserve">
<style type="text/css">
	.st0{fill-rule:evenodd;clip-rule:evenodd;fill:#FFFFFF;}
	.st1{fill:#293377;}
	.st2{fill-rule:evenodd;clip-rule:evenodd;fill:#6DBE45;}
</style>
<g id="header-background">
	<g id="background">
		<path class="st0" d="M-0.5,120.5v-193h1441v145l-0.5,0c-3.8,0-385.8-0.4-709.2-0.4c-189.9,0-322.8,0.1-394.8,0.4
			c-30.5,0-30.5,0-57.7,23.9c-27,24.1-27,24.1-42.2,24.1H-0.5z"/>
		<path class="st1" d="M1440-72V72c0,0-382.1-0.4-709.2-0.4c-163.6,0-313.4,0.1-394.8,0.4c-30.6,0-30.6,0-58,24
			c-26.9,24-26.9,24-42,24H0V-72H1440 M1441-73h-1H0h-1v1v192v1h1h236h0.1c15.3,0,15.7-0.2,42.6-24.3C305.7,73,305.7,73,336,73
			c72.1-0.3,204.9-0.4,394.8-0.4c323.4,0,705.4,0.4,709.2,0.4l1,0v-1V-72V-73L1441-73z"/>
	</g>
</g>
<path class="st2" d="M124.8,79.4"/>
</svg>
