<?xml version="1.0" encoding="UTF-8" standalone="no"?>
<!-- Created with Inkscape (http://www.inkscape.org/) -->
<svg
   xmlns:svg="http://www.w3.org/2000/svg"
   xmlns="http://www.w3.org/2000/svg"
   xmlns:xlink="http://www.w3.org/1999/xlink"
   version="1.0"
   width="325"
   height="40"
   id="svg3316">
  <defs
     id="defs3318" />
  <g
     transform="translate(-106.8928,-154.992)"
     id="layer1">
    <g
       transform="translate(1.337025,0.917875)"
       id="g4883">
      <use
         transform="matrix(1.2499999,0,0,1.2499999,-103.07788,95.07989)"
         id="use407"
         style="fill:#211e1e;fill-opacity:1"
         x="395.8602"
         y="89.786797"
         width="611.76422"
         height="858.37817"
         xlink:href="#glyph7-1" />
      <use
         transform="matrix(1.2499999,0,0,1.2499999,-103.07788,95.07989)"
         id="use409"
         style="fill:#211e1e;fill-opacity:1"
         x="400.19061"
         y="89.786797"
         width="611.76422"
         height="858.37817"
         xlink:href="#glyph7-2" />
      <use
         transform="matrix(1.2499999,0,0,1.2499999,-103.07788,95.07989)"
         id="use411"
         style="fill:#211e1e;fill-opacity:1"
         x="402.00769"
         y="89.786797"
         width="611.76422"
         height="858.37817"
         xlink:href="#glyph7-3" />
      <use
         transform="matrix(1.2499999,0,0,1.2499999,-103.07788,95.07989)"
         id="use413"
         style="fill:#211e1e;fill-opacity:1"
         x="403.82477"
         y="89.786797"
         width="611.76422"
         height="858.37817"
         xlink:href="#glyph7-4" />
      <use
         transform="matrix(1.2499999,0,0,1.2499999,-103.07788,95.07989)"
         id="use415"
         style="fill:#211e1e;fill-opacity:1"
         x="407.841"
         y="89.786797"
         width="611.76422"
         height="858.37817"
         xlink:href="#glyph7-5" />
      <use
         transform="matrix(1.2499999,0,0,1.2499999,-103.07788,95.07989)"
         id="use417"
         style="fill:#211e1e;fill-opacity:1"
         x="411.54309"
         y="89.786797"
         width="611.76422"
         height="858.37817"
         xlink:href="#glyph7-6" />
      <use
         transform="matrix(1.2499999,0,0,1.2499999,-103.07788,95.07989)"
         id="use419"
         style="fill:#211e1e;fill-opacity:1"
         x="415.55933"
         y="89.786797"
         width="611.76422"
         height="858.37817"
         xlink:href="#glyph7-4" />
      <use
         transform="matrix(1.2499999,0,0,1.2499999,-103.07788,95.07989)"
         id="use421"
         style="fill:#211e1e;fill-opacity:1"
         x="419.57556"
         y="89.786797"
         width="611.76422"
         height="858.37817"
         xlink:href="#glyph7-5" />
      <use
         transform="matrix(1.2499999,0,0,1.2499999,-103.07788,95.07989)"
         id="use425"
         style="fill:#211e1e;fill-opacity:1"
         x="425.60419"
         y="89.786797"
         width="611.76422"
         height="858.37817"
         xlink:href="#glyph7-8" />
      <use
         transform="matrix(1.2499999,0,0,1.2499999,-103.07788,95.07989)"
         id="use429"
         style="fill:#211e1e;fill-opacity:1"
         x="429.62128"
         y="89.786797"
         width="611.76422"
         height="858.37817"
         xlink:href="#glyph7-9" />
      <use
         transform="matrix(1.2499999,0,0,1.2499999,-103.07788,95.07989)"
         id="use431"
         style="fill:#211e1e;fill-opacity:1"
         x="433.63751"
         y="89.786797"
         width="611.76422"
         height="858.37817"
         xlink:href="#glyph7-6" />
      <use
         transform="matrix(1.2499999,0,0,1.2499999,-103.07788,95.07989)"
         id="use433"
         style="fill:#211e1e;fill-opacity:1"
         x="437.65375"
         y="89.786797"
         width="611.76422"
         height="858.37817"
         xlink:href="#glyph7-10" />
      <use
         transform="matrix(1.2499999,0,0,1.2499999,-103.07788,95.07989)"
         id="use435"
         style="fill:#211e1e;fill-opacity:1"
         x="440.72748"
         y="89.786797"
         width="611.76422"
         height="858.37817"
         xlink:href="#glyph7-11" />
      <use
         transform="matrix(1.2499999,0,0,1.2499999,-103.07788,95.07989)"
         id="use443"
         style="fill:#211e1e;fill-opacity:1"
         x="450.1525"
         y="89.786797"
         width="611.76422"
         height="858.37817"
         xlink:href="#glyph7-12" />
      <use
         transform="matrix(1.2499999,0,0,1.2499999,-103.07788,95.07989)"
         id="use445"
         style="fill:#211e1e;fill-opacity:1"
         x="455.27258"
         y="89.786797"
         width="611.76422"
         height="858.37817"
         xlink:href="#glyph7-5" />
      <use
         transform="matrix(1.2499999,0,0,1.2499999,-103.07788,95.07989)"
         id="use447"
         style="fill:#211e1e;fill-opacity:1"
         x="458.97464"
         y="89.786797"
         width="611.76422"
         height="858.37817"
         xlink:href="#glyph7-10" />
      <use
         transform="matrix(1.2499999,0,0,1.2499999,-103.07788,95.07989)"
         id="use449"
         style="fill:#211e1e;fill-opacity:1"
         x="462.0484"
         y="89.786797"
         width="611.76422"
         height="858.37817"
         xlink:href="#glyph7-11" />
      <use
         transform="matrix(1.2499999,0,0,1.2499999,-103.07788,95.07989)"
         id="use451"
         style="fill:#211e1e;fill-opacity:1"
         x="464.4938"
         y="89.786797"
         width="611.76422"
         height="858.37817"
         xlink:href="#glyph7-13" />
      <use
         transform="matrix(1.2499999,0,0,1.2499999,-103.07788,95.07989)"
         id="use453"
         style="fill:#211e1e;fill-opacity:1"
         x="468.34872"
         y="89.786797"
         width="611.76422"
         height="858.37817"
         xlink:href="#glyph7-3" />
      <use
         transform="matrix(1.2499999,0,0,1.2499999,-103.07788,95.07989)"
         id="use455"
         style="fill:#211e1e;fill-opacity:1"
         x="470.1658"
         y="89.786797"
         width="611.76422"
         height="858.37817"
         xlink:href="#glyph7-11" />
      <use
         transform="matrix(1.2499999,0,0,1.2499999,-103.07788,95.07989)"
         id="use457"
         style="fill:#211e1e;fill-opacity:1"
         x="472.61121"
         y="89.786797"
         width="611.76422"
         height="858.37817"
         xlink:href="#glyph7-9" />
      <use
         transform="matrix(1.2499999,0,0,1.2499999,-103.07788,95.07989)"
         id="use459"
         style="fill:#211e1e;fill-opacity:1"
         x="476.62744"
         y="89.786797"
         width="611.76422"
         height="858.37817"
         xlink:href="#glyph7-6" />
      <use
         transform="matrix(1.2499999,0,0,1.2499999,-103.07788,95.07989)"
         id="use461"
         style="fill:#211e1e;fill-opacity:1"
         x="480.64368"
         y="89.786797"
         width="611.76422"
         height="858.37817"
         xlink:href="#glyph7-14" />
      <use
         transform="matrix(1.2499999,0,0,1.2499999,-103.07788,95.07989)"
         id="use469"
         style="fill:#211e1e;fill-opacity:1"
         x="491.63953"
         y="89.786797"
         width="611.76422"
         height="858.37817"
         xlink:href="#glyph7-15" />
      <use
         transform="matrix(1.2499999,0,0,1.2499999,-103.07788,95.07989)"
         id="use471"
         style="fill:#211e1e;fill-opacity:1"
         x="498.00778"
         y="89.786797"
         width="611.76422"
         height="858.37817"
         xlink:href="#glyph7-9" />
      <use
         transform="matrix(1.2499999,0,0,1.2499999,-103.07788,95.07989)"
         id="use473"
         style="fill:#211e1e;fill-opacity:1"
         x="502.02402"
         y="89.786797"
         width="611.76422"
         height="858.37817"
         xlink:href="#glyph7-10" />
      <use
         transform="matrix(1.2499999,0,0,1.2499999,-103.07788,95.07989)"
         id="use475"
         style="fill:#211e1e;fill-opacity:1"
         x="505.09778"
         y="89.786797"
         width="611.76422"
         height="858.37817"
         xlink:href="#glyph7-2" />
      <use
         transform="matrix(1.2499999,0,0,1.2499999,-103.07788,95.07989)"
         id="use477"
         style="fill:#211e1e;fill-opacity:1"
         x="506.91483"
         y="89.786797"
         width="611.76422"
         height="858.37817"
         xlink:href="#glyph7-16" />
      <use
         transform="matrix(1.2499999,0,0,1.2499999,-103.07788,95.07989)"
         id="use485"
         style="fill:#211e1e;fill-opacity:1"
         x="517.5965"
         y="89.786797"
         width="611.76422"
         height="858.37817"
         xlink:href="#glyph7-17" />
      <use
         transform="matrix(1.2499999,0,0,1.2499999,-103.07788,95.07989)"
         id="use487"
         style="fill:#211e1e;fill-opacity:1"
         x="522.4024"
         y="89.786797"
         width="611.76422"
         height="858.37817"
         xlink:href="#glyph7-13" />
      <use
         transform="matrix(1.2499999,0,0,1.2499999,-103.07788,95.07989)"
         id="use489"
         style="fill:#211e1e;fill-opacity:1"
         x="526.25732"
         y="89.786797"
         width="611.76422"
         height="858.37817"
         xlink:href="#glyph7-18" />
      <use
         transform="matrix(1.2499999,0,0,1.2499999,-103.07788,95.07989)"
         id="use491"
         style="fill:#211e1e;fill-opacity:1"
         x="528.70276"
         y="89.786797"
         width="611.76422"
         height="858.37817"
         xlink:href="#glyph7-10" />
      <use
         transform="matrix(1.2499999,0,0,1.2499999,-103.07788,95.07989)"
         id="use493"
         style="fill:#211e1e;fill-opacity:1"
         x="531.77649"
         y="89.786797"
         width="611.76422"
         height="858.37817"
         xlink:href="#glyph7-11" />
      <use
         transform="matrix(1.2499999,0,0,1.2499999,-103.07788,95.07989)"
         id="use495"
         style="fill:#211e1e;fill-opacity:1"
         x="534.22192"
         y="89.786797"
         width="611.76422"
         height="858.37817"
         xlink:href="#glyph7-5" />
      <use
         transform="matrix(1.2499999,0,0,1.2499999,-103.07788,95.07989)"
         id="use497"
         style="fill:#211e1e;fill-opacity:1"
         x="537.92395"
         y="89.786797"
         width="611.76422"
         height="858.37817"
         xlink:href="#glyph7-3" />
      <use
         transform="matrix(1.2499999,0,0,1.2499999,-103.07788,95.07989)"
         id="use499"
         style="fill:#211e1e;fill-opacity:1"
         x="539.74103"
         y="89.786797"
         width="611.76422"
         height="858.37817"
         xlink:href="#glyph7-3" />
      <use
         transform="matrix(1.2499999,0,0,1.2499999,-103.07788,95.07989)"
         id="use501"
         style="fill:#211e1e;fill-opacity:1"
         x="541.55811"
         y="89.786797"
         width="611.76422"
         height="858.37817"
         xlink:href="#glyph7-5" />
      <use
         transform="matrix(1.2499999,0,0,1.2499999,-103.07788,95.07989)"
         id="use503"
         style="fill:#211e1e;fill-opacity:1"
         x="545.26019"
         y="89.786797"
         width="611.76422"
         height="858.37817"
         xlink:href="#glyph7-6" />
      <use
         transform="matrix(1.2499999,0,0,1.2499999,-103.07788,95.07989)"
         id="use505"
         style="fill:#211e1e;fill-opacity:1"
         x="549.27643"
         y="89.786797"
         width="611.76422"
         height="858.37817"
         xlink:href="#glyph7-4" />
      <use
         transform="matrix(1.2499999,0,0,1.2499999,-103.07788,95.07989)"
         id="use507"
         style="fill:#211e1e;fill-opacity:1"
         x="553.29266"
         y="89.786797"
         width="611.76422"
         height="858.37817"
         xlink:href="#glyph7-5" />
      <use
         transform="matrix(1.2499999,0,0,1.2499999,-103.07788,95.07989)"
         id="use511"
         style="fill:#211e1e;fill-opacity:1"
         x="559.32129"
         y="89.786797"
         width="611.76422"
         height="858.37817"
         xlink:href="#glyph7-8" />
      <use
         transform="matrix(1.2499999,0,0,1.2499999,-103.07788,95.07989)"
         id="use515"
         style="fill:#211e1e;fill-opacity:1"
         x="563.33838"
         y="89.786797"
         width="611.76422"
         height="858.37817"
         xlink:href="#glyph7-9" />
      <use
         transform="matrix(1.2499999,0,0,1.2499999,-103.07788,95.07989)"
         id="use517"
         style="fill:#211e1e;fill-opacity:1"
         x="567.35461"
         y="89.786797"
         width="611.76422"
         height="858.37817"
         xlink:href="#glyph7-6" />
      <use
         transform="matrix(1.2499999,0,0,1.2499999,-103.07788,95.07989)"
         id="use519"
         style="fill:#211e1e;fill-opacity:1"
         x="571.37085"
         y="89.786797"
         width="611.76422"
         height="858.37817"
         xlink:href="#glyph7-10" />
      <use
         transform="matrix(1.2499999,0,0,1.2499999,-103.07788,95.07989)"
         id="use521"
         style="fill:#211e1e;fill-opacity:1"
         x="574.44458"
         y="89.786797"
         width="611.76422"
         height="858.37817"
         xlink:href="#glyph7-11" />
      <path
         d="M 142.32249,154.992 L 106.8928,154.992 L 106.8928,190.23125 L 142.32249,190.23125 L 142.32249,154.992 z M 108.35765,175.91484 C 108.35765,174.73809 109.3098,173.78594 110.48655,173.78594 C 111.66332,173.78594 112.61547,174.73809 112.61547,175.91484 C 112.61547,177.0916 111.66332,178.04375 110.48655,178.04375 C 109.3098,178.04375 108.35765,177.0916 108.35765,175.91484 z M 110.48655,183.30254 C 111.66332,183.30254 112.61547,182.34551 112.61547,181.17363 C 112.61547,179.99688 111.66332,179.04473 110.48655,179.04473 C 109.3098,179.04473 108.35765,179.99688 108.35765,181.17363 C 108.35765,182.34551 109.3098,183.30254 110.48655,183.30254 z M 108.35765,186.42754 C 108.35765,185.25566 109.3098,184.30352 110.48655,184.30352 C 111.66332,184.30352 112.61547,185.25566 112.61547,186.42754 C 112.61547,187.6043 111.66332,188.55645 110.48655,188.55645 C 109.3098,188.55645 108.35765,187.6043 108.35765,186.42754 z M 121.05296,178.04375 C 122.22971,178.04375 123.18186,177.0916 123.18186,175.91484 C 123.18186,174.73809 122.22971,173.78594 121.05296,173.78594 C 119.8762,173.78594 118.92405,174.73809 118.92405,175.91484 C 118.92405,177.0916 119.8762,178.04375 121.05296,178.04375 z M 118.92405,186.42754 C 118.92405,185.25566 119.8762,184.30352 121.05296,184.30352 C 122.22971,184.30352 123.18186,185.25566 123.18186,186.42754 C 123.18186,187.6043 122.22971,188.55645 121.05296,188.55645 C 119.8762,188.55645 118.92405,187.6043 118.92405,186.42754 z M 128.16721,178.04375 C 129.33909,178.04375 130.29613,177.0916 130.29613,175.91484 C 130.29613,174.73809 129.33909,173.78594 128.16721,173.78594 C 126.99046,173.78594 126.03831,174.73809 126.03831,175.91484 C 126.03831,177.0916 126.99046,178.04375 128.16721,178.04375 z M 126.03831,181.17363 C 126.03831,179.99688 126.99046,179.04473 128.16721,179.04473 C 129.33909,179.04473 130.29613,179.99688 130.29613,181.17363 C 130.29613,182.34551 129.33909,183.30254 128.16721,183.30254 C 126.99046,183.30254 126.03831,182.34551 126.03831,181.17363 z M 133.44554,183.30254 C 134.6223,183.30254 135.57445,182.34551 135.57445,181.17363 C 135.57445,179.99688 134.6223,179.04473 133.44554,179.04473 C 132.26878,179.04473 131.31663,179.99688 131.31663,181.17363 C 131.31663,182.34551 132.26878,183.30254 133.44554,183.30254 z M 131.31663,186.42754 C 131.31663,185.25566 132.26878,184.30352 133.44554,184.30352 C 134.6223,184.30352 135.57445,185.25566 135.57445,186.42754 C 135.57445,187.6043 134.6223,188.55645 133.44554,188.55645 C 132.26878,188.55645 131.31663,187.6043 131.31663,186.42754 z M 138.73363,183.30254 C 139.91038,183.30254 140.86253,182.34551 140.86253,181.17363 C 140.86253,179.99688 139.91038,179.04473 138.73363,179.04473 C 137.55686,179.04473 136.60471,179.99688 136.60471,181.17363 C 136.60471,182.34551 137.55686,183.30254 138.73363,183.30254 z M 136.60471,186.42754 C 136.60471,185.25566 137.55686,184.30352 138.73363,184.30352 C 139.91038,184.30352 140.86253,185.25566 140.86253,186.42754 C 140.86253,187.6043 139.91038,188.55645 138.73363,188.55645 C 137.55686,188.55645 136.60471,187.6043 136.60471,186.42754 z M 128.16721,188.55645 C 129.33909,188.55645 130.29613,187.6043 130.29613,186.42754 C 130.29613,185.25566 129.33909,184.30352 128.16721,184.30352 C 126.99046,184.30352 126.03831,185.25566 126.03831,186.42754 C 126.03831,187.6043 126.99046,188.55645 128.16721,188.55645 z M 108.35765,158.79082 C 108.35765,157.61406 109.3098,156.66192 110.48655,156.66192 C 111.66332,156.66192 112.61547,157.61406 112.61547,158.79082 C 112.61547,159.96758 111.66332,160.91973 110.48655,160.91973 C 109.3098,160.91973 108.35765,159.96758 108.35765,158.79082 z M 128.16721,166.17852 C 129.33909,166.17852 130.29613,165.22637 130.29613,164.04961 C 130.29613,162.87285 129.33909,161.9207 128.16721,161.9207 C 126.99046,161.9207 126.03831,162.87285 126.03831,164.04961 C 126.03831,165.22637 126.99046,166.17852 128.16721,166.17852 z M 126.03831,169.3084 C 126.03831,168.13164 126.99046,167.17949 128.16721,167.17949 C 129.33909,167.17949 130.29613,168.13164 130.29613,169.3084 C 130.29613,170.48516 129.33909,171.43731 128.16721,171.43731 C 126.99046,171.43731 126.03831,170.48516 126.03831,169.3084 z M 133.44554,166.17852 C 134.6223,166.17852 135.57445,165.22637 135.57445,164.04961 C 135.57445,162.87285 134.6223,161.9207 133.44554,161.9207 C 132.26878,161.9207 131.31663,162.87285 131.31663,164.04961 C 131.31663,165.22637 132.26878,166.17852 133.44554,166.17852 z M 131.31663,169.3084 C 131.31663,168.13164 132.26878,167.17949 133.44554,167.17949 C 134.6223,167.17949 135.57445,168.13164 135.57445,169.3084 C 135.57445,170.48516 134.6223,171.43731 133.44554,171.43731 C 132.26878,171.43731 131.31663,170.48516 131.31663,169.3084 z M 138.73363,160.91973 C 139.91038,160.91973 140.86253,159.96758 140.86253,158.79082 C 140.86253,157.61406 139.91038,156.66192 138.73363,156.66192 C 137.55686,156.66192 136.60471,157.61406 136.60471,158.79082 C 136.60471,159.96758 137.55686,160.91973 138.73363,160.91973 z M 136.60471,164.04961 C 136.60471,162.87285 137.55686,161.9207 138.73363,161.9207 C 139.91038,161.9207 140.86253,162.87285 140.86253,164.04961 C 140.86253,165.22637 139.91038,166.17852 138.73363,166.17852 C 137.55686,166.17852 136.60471,165.22637 136.60471,164.04961 z M 138.73363,171.43731 C 139.91038,171.43731 140.86253,170.48516 140.86253,169.3084 C 140.86253,168.13164 139.91038,167.17949 138.73363,167.17949 C 137.55686,167.17949 136.60471,168.13164 136.60471,169.3084 C 136.60471,170.48516 137.55686,171.43731 138.73363,171.43731 z M 118.92405,164.04961 C 118.92405,162.87285 119.8762,161.9207 121.05296,161.9207 C 122.22971,161.9207 123.18186,162.87285 123.18186,164.04961 C 123.18186,165.22637 122.22971,166.17852 121.05296,166.17852 C 119.8762,166.17852 118.92405,165.22637 118.92405,164.04961 z M 121.05296,171.43731 C 122.22971,171.43731 123.18186,170.48516 123.18186,169.3084 C 123.18186,168.13164 122.22971,167.17949 121.05296,167.17949 C 119.8762,167.17949 118.92405,168.13164 118.92405,169.3084 C 118.92405,170.48516 119.8762,171.43731 121.05296,171.43731 z M 108.35765,164.04961 C 108.35765,162.87285 109.3098,161.9207 110.48655,161.9207 C 111.66332,161.9207 112.61547,162.87285 112.61547,164.04961 C 112.61547,165.22637 111.66332,166.17852 110.48655,166.17852 C 109.3098,166.17852 108.35765,165.22637 108.35765,164.04961 z M 110.48655,171.43731 C 111.66332,171.43731 112.61547,170.48516 112.61547,169.3084 C 112.61547,168.13164 111.66332,167.17949 110.48655,167.17949 C 109.3098,167.17949 108.35765,168.13164 108.35765,169.3084 C 108.35765,170.48516 109.3098,171.43731 110.48655,171.43731 z M 113.63597,181.17363 C 113.63597,179.99688 114.58812,179.04473 115.76488,179.04473 C 116.94163,179.04473 117.89378,179.99688 117.89378,181.17363 C 117.89378,182.34551 116.94163,183.30254 115.76488,183.30254 C 114.58812,183.30254 113.63597,182.34551 113.63597,181.17363 z M 115.76488,166.17852 C 116.94163,166.17852 117.89378,165.22637 117.89378,164.04961 C 117.89378,162.87285 116.94163,161.9207 115.76488,161.9207 C 114.58812,161.9207 113.63597,162.87285 113.63597,164.04961 C 113.63597,165.22637 114.58812,166.17852 115.76488,166.17852"
         id="path523"
         style="fill:#e70036;fill-opacity:1;fill-rule:evenodd;stroke:none" />
      <path
         d="M 154.50022,176.96953 C 154.50022,180.2459 155.48655,182.74102 159.02659,182.74102 C 162.56662,182.74102 163.55296,179.98711 163.55296,176.96953 L 163.55296,167.33086 L 162.19554,167.33086 L 162.19554,176.94512 C 162.19554,179.00078 161.88792,181.47148 159.02659,181.47148 C 156.2971,181.47148 155.85765,179.24004 155.85765,176.94512 L 155.85765,167.33086 L 154.50022,167.33086 L 154.50022,176.96953 z M 166.78537,182.58477 L 168.05491,182.58477 L 168.05491,175.65606 C 168.05491,173.92754 169.03636,172.46758 170.58909,172.46758 C 172.66429,172.46758 172.66429,174.30352 172.66429,175.06523 L 172.66429,182.58477 L 173.93381,182.58477 L 173.93381,175.10918 C 173.93381,174.36699 173.93381,171.28594 170.85276,171.28594 C 168.99241,171.28594 168.27464,172.59942 168.01096,173.07793 L 167.96702,173.07793 C 167.94261,172.27227 167.92307,171.94024 167.87912,171.43731 L 166.69749,171.43731 C 166.7219,172.59942 166.78537,173.73223 166.78537,174.89434 L 166.78537,182.58477 z M 177.01487,182.58477 L 178.2844,182.58477 L 178.2844,171.43731 L 177.01487,171.43731 L 177.01487,182.58477 z M 176.88304,168.9666 L 178.41136,168.9666 L 178.41136,167.00371 L 176.88304,167.00371 L 176.88304,168.9666 z M 183.37717,182.58477 L 184.9055,182.58477 L 188.16233,171.43731 L 186.8928,171.43731 L 184.16331,181.14434 L 184.11936,181.14434 L 181.47287,171.43731 L 180.12033,171.43731 L 183.37717,182.58477 z M 196.81956,177.42852 C 196.81956,174.71856 196.48752,171.28594 193.25511,171.28594 C 191.37522,171.28594 189.30002,172.81426 189.30002,177.01348 C 189.30002,178.12676 189.30002,182.74102 193.67015,182.74102 C 195.00315,182.74102 195.74533,182.38945 196.27268,182.10625 L 196.20432,180.64141 C 195.56956,181.20781 194.52463,181.55938 193.80198,181.55938 C 193.29905,181.55938 190.65257,181.55938 190.65257,177.42852 L 196.81956,177.42852 z M 190.65257,176.24688 C 190.65257,174.80645 191.46311,172.46758 193.18675,172.46758 C 194.21702,172.46758 195.46213,173.29766 195.46213,176.24688 L 190.65257,176.24688 z M 199.19748,182.58477 L 200.46702,182.58477 L 200.46702,175.56816 C 200.46702,173.5125 201.38498,172.64336 203.39671,172.64336 L 203.39671,171.28594 C 202.17112,171.28594 201.23362,171.61309 200.42307,173.20977 L 200.37912,173.20977 C 200.3596,172.75078 200.31565,172.09649 200.29123,171.43731 L 199.11448,171.43731 C 199.13401,172.59942 199.19748,173.73223 199.19748,174.89434 L 199.19748,182.58477 z M 210.06174,171.61309 C 209.64671,171.48125 208.75315,171.28594 208.00608,171.28594 C 206.52171,171.28594 204.72971,172.27227 204.72971,174.36699 C 204.72971,175.93926 205.4719,176.53008 207.35178,177.47246 C 208.66526,178.12676 209.33908,178.56133 209.33908,179.63555 C 209.33908,180.64141 208.48948,181.55938 207.28831,181.55938 C 206.25803,181.55938 205.12033,181.05645 204.74925,180.79277 L 204.57835,182.21367 C 205.23265,182.45293 206.01877,182.74102 207.39573,182.74102 C 209.27561,182.74102 210.69651,181.51543 210.69651,179.50371 C 210.69651,177.71172 209.51487,177.14531 207.98655,176.31035 C 206.47776,175.48027 206.08226,175.26543 206.08226,174.23516 C 206.08226,173.44902 206.67307,172.46758 207.98655,172.46758 C 208.70921,172.46758 209.2512,172.68731 209.88596,172.92656 L 210.06174,171.61309 z M 213.07932,182.58477 L 214.34397,182.58477 L 214.34397,171.43731 L 213.07932,171.43731 L 213.07932,182.58477 z M 212.94748,168.9666 L 214.47581,168.9666 L 214.47581,167.00371 L 212.94748,167.00371 L 212.94748,168.9666 z M 217.99632,169.21074 L 217.99632,171.43731 L 216.33616,171.43731 L 216.33616,172.61895 L 217.99632,172.61895 L 217.99632,180.22637 C 217.99632,181.47148 218.43577,182.74102 220.07151,182.74102 C 220.66233,182.74102 221.22873,182.69707 221.53636,182.58477 L 221.53636,181.32012 C 221.29709,181.42754 221.07737,181.55938 220.48654,181.55938 C 219.41721,181.55938 219.26584,180.77324 219.26584,179.87481 L 219.26584,172.61895 L 221.53636,172.61895 L 221.53636,171.43731 L 219.26584,171.43731 L 219.26584,168.81524 L 217.99632,169.21074 z M 224.59788,169.1668 L 225.86252,169.1668 L 225.86252,167.02324 L 224.59788,167.02324 L 224.59788,169.1668 z M 227.87424,169.1668 L 229.14377,169.1668 L 229.14377,167.02324 L 227.87424,167.02324 L 227.87424,169.1668 z M 230.28147,174.98223 C 230.28147,174.17168 230.28147,171.28594 226.84886,171.28594 C 225.62327,171.28594 224.83713,171.70098 223.78733,172.27227 L 223.98264,173.62481 C 224.11448,173.5125 225.29612,172.46758 226.78049,172.46758 C 229.09983,172.46758 229.09983,174.4793 229.09983,175.87578 L 228.28928,175.87578 C 226.69261,175.87578 222.91331,175.93926 222.91331,179.50371 C 222.91331,181.32012 224.29026,182.74102 226.01877,182.74102 C 227.45921,182.74102 228.37717,182.21367 229.14377,180.98809 L 229.18772,180.98809 L 229.27561,182.58477 L 230.41331,182.58477 C 230.34494,181.75469 230.28147,180.92461 230.28147,180.09453 L 230.28147,174.98223 z M 229.09983,178.27813 C 229.09983,181.32012 226.91233,181.55938 226.32151,181.55938 C 224.96897,181.55938 224.27073,180.44121 224.27073,179.50371 C 224.27073,176.96953 226.47776,176.96953 229.09983,176.96953 L 229.09983,178.27813 z M 233.77756,169.21074 L 233.77756,171.43731 L 232.11252,171.43731 L 232.11252,172.61895 L 233.77756,172.61895 L 233.77756,180.22637 C 233.77756,181.47148 234.21213,182.74102 235.85276,182.74102 C 236.44358,182.74102 237.00998,182.69707 237.31761,182.58477 L 237.31761,181.32012 C 237.07834,181.42754 236.85862,181.55938 236.26779,181.55938 C 235.19846,181.55938 235.04221,180.77324 235.04221,179.87481 L 235.04221,172.61895 L 237.31761,172.61895 L 237.31761,171.43731 L 235.04221,171.43731 L 235.04221,168.81524 L 233.77756,169.21074 z M 252.2883,166.19317 L 251.01877,166.19317 L 251.01877,172.88262 L 250.9797,172.88262 C 250.40842,171.85235 249.57834,171.28594 248.15744,171.28594 C 245.35959,171.28594 244.46115,174.4793 244.46115,176.59844 C 244.46115,178.14629 244.59299,182.74102 248.2258,182.74102 C 249.62229,182.74102 250.32053,182.10625 251.1506,181.05645 L 251.19455,181.05645 L 251.19455,182.58477 L 252.37619,182.58477 C 252.33224,181.62285 252.2883,180.64141 252.2883,178.89336 L 252.2883,166.19317 z M 245.81858,177.01348 C 245.81858,174.43535 246.47288,172.46758 248.37717,172.46758 C 251.10667,172.46758 251.10667,175.65606 251.10667,177.14531 C 251.10667,179.41582 250.52073,181.55938 248.35275,181.55938 C 245.81858,181.55938 245.81858,177.93145 245.81858,177.01348 z M 262.10275,177.42852 C 262.10275,174.71856 261.7756,171.28594 258.5383,171.28594 C 256.65842,171.28594 254.58323,172.81426 254.58323,177.01348 C 254.58323,178.12676 254.58323,182.74102 258.95334,182.74102 C 260.28635,182.74102 261.03342,182.38945 261.55588,182.10625 L 261.4924,180.64141 C 260.85764,181.20781 259.80783,181.55938 259.08518,181.55938 C 258.58224,181.55938 255.94064,181.55938 255.94064,177.42852 L 262.10275,177.42852 z M 255.94064,176.24688 C 255.94064,174.80645 256.74632,172.46758 258.47483,172.46758 C 259.50022,172.46758 260.74533,173.29766 260.74533,176.24688 L 255.94064,176.24688 z M 264.48557,182.58477 L 265.75022,182.58477 L 265.75022,175.56816 C 265.75022,173.5125 266.67307,172.64336 268.6799,172.64336 L 268.6799,171.28594 C 267.4592,171.28594 266.51682,171.61309 265.70627,173.20977 L 265.6672,173.20977 C 265.64279,172.75078 265.59885,172.09649 265.57932,171.43731 L 264.39768,171.43731 C 264.42209,172.59942 264.48557,173.73223 264.48557,174.89434 L 264.48557,182.58477 z M 276.59494,182.58477 L 277.94748,182.58477 L 277.94748,175.10918 L 277.99143,175.10918 L 283.87033,182.58477 L 285.66233,182.58477 L 279.06564,174.58672 L 285.15939,167.33086 L 283.49924,167.33086 L 277.99143,174.01543 L 277.94748,174.01543 L 277.94748,167.33086 L 276.59494,167.33086 L 276.59494,182.58477 z M 288.57248,169.1668 L 289.83713,169.1668 L 289.83713,167.02324 L 288.57248,167.02324 L 288.57248,169.1668 z M 291.84885,169.1668 L 293.11838,169.1668 L 293.11838,167.02324 L 291.84885,167.02324 L 291.84885,169.1668 z M 294.40744,171.43731 L 293.13791,171.43731 L 293.13791,178.36602 C 293.13791,180.09453 292.15646,181.55938 290.60373,181.55938 C 288.52854,181.55938 288.52854,179.72344 288.52854,178.95684 L 288.52854,171.43731 L 287.259,171.43731 L 287.259,179.22051 C 287.259,180.98809 287.9133,182.74102 290.34005,182.74102 C 292.20041,182.74102 293.05001,181.42754 293.18185,180.94414 L 293.2258,180.94414 C 293.25021,181.75469 293.26974,182.08184 293.31369,182.58477 L 294.49533,182.58477 C 294.47091,181.42754 294.40744,180.28984 294.40744,179.13262 L 294.40744,171.43731 z M 297.38108,182.58477 L 298.64573,182.58477 L 298.64573,175.65606 C 298.64573,173.92754 299.63205,172.46758 301.1799,172.46758 C 303.25997,172.46758 303.25997,174.30352 303.25997,175.06523 L 303.25997,182.58477 L 304.52462,182.58477 L 304.52462,175.10918 C 304.52462,174.36699 304.52462,171.28594 301.44358,171.28594 C 299.5881,171.28594 298.86545,172.59942 298.60178,173.07793 L 298.55783,173.07793 C 298.5383,172.27227 298.51389,171.94024 298.46994,171.43731 L 297.29318,171.43731 C 297.31271,172.59942 297.38108,173.73223 297.38108,174.89434 L 297.38108,182.58477 z M 312.2883,171.61309 C 311.86837,171.48125 310.97482,171.28594 310.23264,171.28594 C 308.74337,171.28594 306.95139,172.27227 306.95139,174.36699 C 306.95139,175.93926 307.69845,176.53008 309.57345,177.47246 C 310.88694,178.12676 311.56564,178.56133 311.56564,179.63555 C 311.56564,180.64141 310.71115,181.55938 309.50997,181.55938 C 308.48459,181.55938 307.34689,181.05645 306.9758,180.79277 L 306.80001,182.21367 C 307.45431,182.45293 308.24045,182.74102 309.6174,182.74102 C 311.49729,182.74102 312.91817,181.51543 312.91817,179.50371 C 312.91817,177.71172 311.74142,177.14531 310.20822,176.31035 C 308.69942,175.48027 308.30881,175.26543 308.30881,174.23516 C 308.30881,173.44902 308.89962,172.46758 310.20822,172.46758 C 310.93087,172.46758 311.47775,172.68731 312.11251,172.92656 L 312.2883,171.61309 z M 315.75997,169.21074 L 315.75997,171.43731 L 314.09982,171.43731 L 314.09982,172.61895 L 315.75997,172.61895 L 315.75997,180.22637 C 315.75997,181.47148 316.19942,182.74102 317.83517,182.74102 C 318.42599,182.74102 318.99729,182.69707 319.30001,182.58477 L 319.30001,181.32012 C 319.06076,181.42754 318.84104,181.55938 318.25021,181.55938 C 317.18087,181.55938 317.02951,180.77324 317.02951,179.87481 L 317.02951,172.61895 L 319.30001,172.61895 L 319.30001,171.43731 L 317.02951,171.43731 L 317.02951,168.81524 L 315.75997,169.21074 z M 328.1965,177.42852 C 328.1965,174.71856 327.86935,171.28594 324.63694,171.28594 C 322.75705,171.28594 320.67697,172.81426 320.67697,177.01348 C 320.67697,178.12676 320.67697,182.74102 325.05197,182.74102 C 326.38497,182.74102 327.12716,182.38945 327.64962,182.10625 L 327.58615,180.64141 C 326.95139,181.20781 325.90157,181.55938 325.17892,181.55938 C 324.68087,181.55938 322.03439,181.55938 322.03439,177.42852 L 328.1965,177.42852 z M 322.03439,176.24688 C 322.03439,174.80645 322.84005,172.46758 324.56857,172.46758 C 325.59396,172.46758 326.84396,173.29766 326.84396,176.24688 L 322.03439,176.24688 z M 337.96701,168.59551 L 339.86642,168.59551 C 341.85861,168.59551 342.64473,169.75762 342.64473,171.19805 C 342.64473,173.01445 341.41916,174.03984 339.82247,174.03984 L 337.96701,174.03984 L 337.96701,168.59551 z M 337.96701,175.30938 L 340.0422,175.30938 C 341.92208,175.30938 342.97188,176.59844 342.97188,178.39043 C 342.97188,178.86895 342.84005,181.32012 339.89083,181.32012 L 337.96701,181.32012 L 337.96701,175.30938 z M 336.61447,182.58477 L 339.23653,182.58477 C 340.32541,182.58477 344.4172,182.58477 344.4172,178.32207 C 344.4172,176.09551 343.07931,175.00176 341.68282,174.60625 L 341.68282,174.56719 C 342.64473,174.17168 344.08517,173.29766 344.08517,171.02227 C 344.08517,169.14238 342.84005,167.33086 340.17403,167.33086 L 336.61447,167.33086 L 336.61447,182.58477 z M 354.20723,177.42852 C 354.20723,174.71856 353.8801,171.28594 350.64278,171.28594 C 348.76291,171.28594 346.68771,172.81426 346.68771,177.01348 C 346.68771,178.12676 346.68771,182.74102 351.05782,182.74102 C 352.39083,182.74102 353.13791,182.38945 353.66036,182.10625 L 353.59688,180.64141 C 352.96212,181.20781 351.91232,181.55938 351.18966,181.55938 C 350.68673,181.55938 348.04513,181.55938 348.04513,177.42852 L 354.20723,177.42852 z M 348.04513,176.24688 C 348.04513,174.80645 348.8508,172.46758 350.57931,172.46758 C 351.6047,172.46758 352.84982,173.29766 352.84982,176.24688 L 348.04513,176.24688 z M 356.59005,182.58477 L 357.85958,182.58477 L 357.85958,175.56816 C 357.85958,173.5125 358.77267,172.64336 360.78438,172.64336 L 360.78438,171.28594 C 359.55881,171.28594 358.62131,171.61309 357.81563,173.20977 L 357.7717,173.20977 C 357.74728,172.75078 357.70333,172.09649 357.68381,171.43731 L 356.50216,171.43731 C 356.5217,172.59942 356.59005,173.73223 356.59005,174.89434 L 356.59005,182.58477 z M 362.77657,182.58477 L 364.04122,182.58477 L 364.04122,166.19317 L 362.77657,166.19317 L 362.77657,182.58477 z M 367.23458,182.58477 L 368.49923,182.58477 L 368.49923,171.43731 L 367.23458,171.43731 L 367.23458,182.58477 z M 367.10274,168.9666 L 368.63107,168.9666 L 368.63107,167.00371 L 367.10274,167.00371 L 367.10274,168.9666 z M 371.58028,182.58477 L 372.84982,182.58477 L 372.84982,175.65606 C 372.84982,173.92754 373.83126,172.46758 375.38399,172.46758 C 377.46407,172.46758 377.46407,174.30352 377.46407,175.06523 L 377.46407,182.58477 L 378.72872,182.58477 L 378.72872,175.10918 C 378.72872,174.36699 378.72872,171.28594 375.64767,171.28594 C 373.79219,171.28594 373.06954,172.59942 372.80587,173.07793 L 372.76193,173.07793 C 372.74239,172.27227 372.71798,171.94024 372.67403,171.43731 L 371.49239,171.43731 C 371.51681,172.59942 371.58028,173.73223 371.58028,174.89434 L 371.58028,182.58477"
         id="path525"
         style="fill:#211e1e;fill-opacity:1;fill-rule:nonzero;stroke:none" />
      <path
         d="M 154.46875,189.09375 L 154.46875,189.78125 L 392.84375,189.78125 L 392.84375,193.15625 L 429.21875,193.15625 L 429.21875,189.09375 L 154.46875,189.09375 z"
         id="path527"
         style="fill:#211e1e;fill-opacity:1;fill-rule:nonzero;stroke:none" />
    </g>
  </g>
</svg>
