<svg id="Layer_1" data-name="Layer 1" xmlns="http://www.w3.org/2000/svg" viewBox="0 0 512 512"><defs><style>.cls-1{fill:#273377;}.cls-2{fill:#fff;}.cls-3{fill:#e95b11;}.cls-4{fill:#108b38;}.cls-5{fill:#652480;}</style></defs><circle class="cls-1" cx="256" cy="256" r="256"/><path class="cls-2" d="M210.39,65.33.69,274.88a254.56,254.56,0,0,0,24.83,92.66L269.12,124.1a41.54,41.54,0,0,0-58.73-58.77Z" transform="translate(0 0)"/><circle class="cls-3" cx="238.45" cy="95.67" r="27.79"/><path class="cls-2" d="M405.4,48.11,175.38,278a41.54,41.54,0,1,0,58.73,58.77l230-229.84A257.4,257.4,0,0,0,405.4,48.11Z" transform="translate(0 0)"/><circle class="cls-4" cx="203.92" cy="308.08" r="27.79"/><path class="cls-2" d="M144,486.23a254.29,254.29,0,0,0,92.5,25L466.77,281.12A41.55,41.55,0,1,0,408,222.35Z" transform="translate(0 0)"/><circle class="cls-5" cx="436.52" cy="252.78" r="27.79"/></svg>